<svg xmlns="http://www.w3.org/2000/svg" width="512" height="512" viewBox="0 0 512 512" version="1.1">
	<path d="M 0 256.002 L 0 512.004 256.250 511.752 L 512.500 511.500 512.752 255.750 L 513.004 0 256.502 0 L 0 0 0 256.002 M 0.492 256.500 C 0.492 397.300, 0.608 454.751, 0.750 384.170 C 0.892 313.588, 0.892 198.388, 0.750 128.170 C 0.608 57.951, 0.492 115.700, 0.492 256.500 M 240.500 80.047 C 217.584 82.585, 194.615 101.460, 187.831 123.330 C 184.027 135.592, 184.072 134.127, 184.036 247.174 C 184.001 354.128, 184.210 362.637, 187.047 369.500 C 187.502 370.600, 188.180 372.625, 188.554 374 C 189.532 377.600, 195.732 387.720, 200.344 393.245 C 211.781 406.947, 231.107 415.013, 252.440 414.988 C 268.823 414.969, 279.017 411.189, 288.217 401.723 C 291.792 398.045, 294.592 395.967, 295.689 396.179 C 296.697 396.373, 299.191 399.831, 301.545 404.295 C 306.594 413.873, 307.362 414.615, 313.071 415.422 C 316.830 415.954, 318.119 415.695, 320.321 413.962 L 323 411.855 322.968 329.677 C 322.944 266.210, 322.656 247.132, 321.706 245.884 C 318.447 241.603, 289.996 239.769, 267.526 242.390 C 258.124 243.486, 253.053 244.519, 252.026 245.545 C 250.014 247.556, 249.796 270.840, 251.767 273.217 C 252.548 274.160, 255.653 275.003, 259.878 275.419 C 271.864 276.600, 271.142 273.861, 270.796 316.832 C 270.468 357.431, 270.475 357.390, 263.808 362.137 C 259.446 365.243, 249.709 365.935, 244.955 363.477 C 240.779 361.317, 239.740 360.285, 237.380 355.951 C 235.580 352.646, 235.489 348.133, 235.232 249.563 C 234.991 157.174, 235.128 146.130, 236.572 141.782 C 239.560 132.787, 245.403 128, 253.393 128 C 259.306 128, 264.366 131.063, 267.617 136.609 C 270.321 141.223, 271.868 152.177, 271.980 167.500 C 272.008 171.350, 272.379 175.049, 272.805 175.720 C 274.694 178.692, 317.831 178.045, 321.513 174.989 C 322.730 173.979, 323 170.424, 323 155.392 C 323 138.450, 322.131 130.192, 319.882 125.764 C 319.397 124.809, 319 123.543, 319 122.952 C 319 120.456, 313.340 110.062, 308.951 104.500 C 293.340 84.712, 270.867 76.684, 240.500 80.047" stroke="none" fill="black" fill-rule="evenodd"/>
</svg>