<?xml version="1.0" encoding="utf-8"?>
<!-- Generator: Adobe Illustrator 16.0.0, SVG Export Plug-In . SVG Version: 6.00 Build 0)  -->
<!DOCTYPE svg PUBLIC "-//W3C//DTD SVG 1.1//EN" "http://www.w3.org/Graphics/SVG/1.1/DTD/svg11.dtd">
<svg version="1.1" id="Layer_1" xmlns="http://www.w3.org/2000/svg" xmlns:xlink="http://www.w3.org/1999/xlink" x="0px" y="0px"
	 width="40px" height="40px" viewBox="0 0 40 40" enable-background="new 0 0 40 40" xml:space="preserve">
<image display="none" overflow="visible" width="1280" height="764" xlink:href="7061A707.jpg"  transform="matrix(1 0 0 1 -1887 -888)">
</image>
<rect x="-1306" y="-577" width="978" height="550"/>
<image overflow="visible" width="1280" height="720" xlink:href="7061A705.jpg"  transform="matrix(0.7641 0 0 0.7639 -1306 -577)">
</image>
<image display="none" overflow="visible" width="921" height="550" xlink:href="7061A70B.jpg"  transform="matrix(0.9999 0 0 0.9999 -1277.4424 -576.9658)">
</image>
<g display="none" opacity="0.5">
	
		<image display="inline" overflow="visible" width="1495" height="843" xlink:href="7061A70D.jpg"  transform="matrix(0.6555 0 0 -0.6524 -1306 -27)">
	</image>
</g>
<rect x="-221" width="40" height="40"/>
<circle fill="none" stroke="#FFFFFF" stroke-width="1.3616" stroke-miterlimit="10" cx="-817" cy="-302" r="47.5"/>
<polygon fill="#FFFFFF" stroke="#FFFFFF" stroke-width="1.8154" stroke-miterlimit="10" points="-831.559,-321.185 
	-831.559,-282.813 -794.441,-302 "/>
<g>
	<polygon fill="#FFFFFF" points="-448.666,-705.471 -442.365,-705.471 -450.277,-697.559 -449.437,-696.717 -441.523,-704.629 
		-441.523,-698.329 -440.334,-698.329 -440.334,-706.662 -448.666,-706.662 	"/>
	<path fill="#FFFFFF" d="M-456.233-691.504l-7.909,8.055v-6.546h-1.19v8.333H-457v-1.189h-6.061l7.676-7.817L-456.233-691.504z
		 M-464.143-682.852v-0.244l0.248,0.244H-464.143z"/>
</g>
<g>
	<path fill="#FFFFFF" d="M-222.57-681.662h38.043v-25h-38.043V-681.662z M-204.742-688.228h-2.314v-5.305h-4.28v5.305h-2.313
		v-11.867h2.313v4.674h4.28v-4.674h2.314V-688.228z M-198.104-688.228h-3.291v-11.867h3.305c3.431,0,5.729,2.564,5.729,5.949
		C-192.361-690.809-194.721-688.228-198.104-688.228"/>
	<path fill="#FFFFFF" d="M-198.703-698.081h-0.377v7.839h0.377c2.85,0,3.951-1.574,3.951-3.919
		C-194.752-696.742-196.074-698.081-198.703-698.081"/>
</g>
<polygon fill="#FFFFFF" points="-381.337,-681.662 -381.337,-706.662 -358.14,-694.164 "/>
<path fill="#FFFFFF" d="M-305.665-681.662h38.043v-25h-38.043V-681.662z M-288.479-697.411c-0.703-0.855-1.763-1.369-2.842-1.369
	c-2.412,0-3.798,2.225-3.798,4.448c0,2.174,1.437,4.349,3.782,4.349c1.078,0,2.154-0.566,2.857-1.37v2.995
	c-0.943,0.445-1.883,0.771-2.928,0.771c-3.627,0-6.314-3.133-6.314-6.691c0-3.662,2.584-6.897,6.367-6.897
	c1.01,0,2.002,0.274,2.875,0.753V-697.411z M-276.401-697.411c-0.703-0.855-1.763-1.369-2.842-1.369
	c-2.412,0-3.799,2.225-3.799,4.448c0,2.174,1.438,4.349,3.783,4.349c1.076,0,2.154-0.566,2.857-1.37v2.995
	c-0.943,0.445-1.883,0.771-2.928,0.771c-3.627,0-6.314-3.133-6.314-6.691c0-3.662,2.584-6.897,6.367-6.897
	c1.01,0,2.002,0.274,2.875,0.753V-697.411z"/>
<rect x="-1306" y="-93" opacity="0.9" width="978" height="66"/>
<polygon fill="#FFFFFF" points="-1393.754,-173 -1393.754,-198 -1370.557,-185.502 "/>
<g>
	<polygon fill="#FFFFFF" points="-456.045,-651.668 -452.534,-651.668 -456.943,-646.921 -456.475,-646.416 -452.064,-651.163 
		-452.064,-647.382 -451.401,-647.382 -451.401,-652.383 -456.045,-652.383 	"/>
	<path fill="#FFFFFF" d="M-460.263-643.288l-4.407,4.833v-3.928h-0.663v5h4.644v-0.714h-3.377l4.277-4.691L-460.263-643.288z
		 M-464.67-638.097v-0.146l0.139,0.146H-464.67z"/>
</g>
<g>
	<path fill="#FFFFFF" d="M-330.049-637.383h21.199v-15h-21.199V-637.383z M-320.114-641.322h-1.289v-3.183h-2.386v3.183h-1.29v-7.12
		h1.29v2.804h2.386v-2.804h1.289V-641.322z M-316.415-641.322h-1.834v-7.12h1.842c1.912,0,3.192,1.539,3.192,3.569
		C-313.215-642.871-314.529-641.322-316.415-641.322"/>
	<path fill="#FFFFFF" d="M-316.749-647.234h-0.21v4.704h0.21c1.588,0,2.202-0.945,2.202-2.352
		C-314.547-646.431-315.284-647.234-316.749-647.234"/>
</g>
<polygon fill="#FFFFFF" points="-418.524,-637.383 -418.524,-652.383 -405.598,-644.884 "/>
<polygon fill="#FFFFFF" points="-1265.308,-49.2 -1265.308,-70.8 -1246.693,-60.001 "/>
<polygon fill="#FFFFFF" points="-210.308,30.8 -210.308,9.2 -191.692,19.999 "/>
<rect x="-164" width="40" height="40"/>
<path fill="#FFFFFF" d="M-376.355-637.383h21.2v-15h-21.2V-637.383z M-366.778-646.832c-0.392-0.514-0.982-0.822-1.584-0.822
	c-1.344,0-2.116,1.335-2.116,2.669c0,1.304,0.801,2.609,2.107,2.609c0.601,0,1.201-0.34,1.593-0.822v1.797
	c-0.525,0.267-1.05,0.462-1.632,0.462c-2.021,0-3.519-1.879-3.519-4.015c0-2.197,1.439-4.139,3.548-4.139
	c0.563,0,1.115,0.165,1.603,0.452V-646.832z M-360.048-646.832c-0.392-0.514-0.982-0.822-1.583-0.822
	c-1.345,0-2.117,1.335-2.117,2.669c0,1.304,0.801,2.609,2.107,2.609c0.601,0,1.201-0.34,1.593-0.822v1.797
	c-0.525,0.267-1.049,0.462-1.632,0.462c-2.021,0-3.519-1.879-3.519-4.015c0-2.197,1.44-4.139,3.549-4.139
	c0.563,0,1.115,0.165,1.602,0.452V-646.832z"/>
<text transform="matrix(1 0 0 1 -857.3184 -54.6289)" fill="#FFFFFF" font-family="'FuturaPT-Book'" font-size="14">00:07 / 05:35</text>
<rect x="-1306" y="-98" fill-rule="evenodd" clip-rule="evenodd" fill="#B3B3B3" width="978" height="5"/>
<rect x="-1306" y="-98" fill-rule="evenodd" clip-rule="evenodd" fill="#EF453E" width="100" height="5"/>
<g>
	<path fill="#FFFFFF" d="M-445.125-49.97h30.527V-70.03h-30.527V-49.97z M-430.819-55.237h-1.856v-4.257h-3.436v4.257h-1.856v-9.523
		h1.856v3.751h3.436v-3.751h1.856V-55.237z M-425.492-55.237h-2.641v-9.523h2.651c2.753,0,4.597,2.059,4.597,4.774
		C-420.885-57.309-422.777-55.237-425.492-55.237"/>
	<path fill="#FFFFFF" d="M-425.973-63.145h-0.303v6.29h0.303c2.286,0,3.17-1.263,3.17-3.145
		C-422.803-62.07-423.863-63.145-425.973-63.145"/>
</g>
<path fill="#FFFFFF" d="M-503.159-49.97h30.527V-70.03h-30.527V-49.97z M-489.369-62.607c-0.564-0.687-1.414-1.099-2.28-1.099
	c-1.936,0-3.048,1.785-3.048,3.57c0,1.744,1.153,3.489,3.035,3.489c0.865,0,1.729-0.455,2.293-1.1v2.403
	c-0.757,0.357-1.511,0.618-2.349,0.618c-2.911,0-5.067-2.514-5.067-5.369c0-2.938,2.073-5.535,5.109-5.535
	c0.811,0,1.606,0.221,2.307,0.604V-62.607z M-479.677-62.607c-0.564-0.687-1.415-1.099-2.28-1.099c-1.936,0-3.049,1.785-3.049,3.57
	c0,1.744,1.153,3.489,3.036,3.489c0.863,0,1.729-0.455,2.293-1.1v2.403c-0.757,0.357-1.511,0.618-2.35,0.618
	c-2.91,0-5.067-2.514-5.067-5.369c0-2.938,2.074-5.535,5.109-5.535c0.811,0,1.606,0.221,2.308,0.604V-62.607z"/>
<image overflow="visible" width="1280" height="720" xlink:href="7061A70F.jpg"  transform="matrix(0.7641 0 0 0.7639 -280 -577)">
</image>
<circle fill="none" stroke="#FFFFFF" stroke-width="1.3616" stroke-miterlimit="10" cx="209" cy="-302" r="47.5"/>
<polygon fill="none" stroke="#FFFFFF" stroke-width="1.8154" stroke-miterlimit="10" points="194.441,-321.185 194.441,-282.813 
	231.559,-302 "/>
<rect x="-280" y="-93" opacity="0.9" width="978" height="66"/>
<g>
	<polygon fill="#FFFFFF" points="657.518,-69.771 662.573,-69.771 656.224,-62.935 656.899,-62.208 663.249,-69.043 663.249,-63.6 
		664.204,-63.6 664.204,-70.8 657.518,-70.8 	"/>
	<path fill="#FFFFFF" d="M651.444-57.703l-6.348,6.959v-5.655h-0.955v7.199h6.688v-1.027h-4.862l6.159-6.755L651.444-57.703z
		 M645.097-50.228v-0.211l0.201,0.211H645.097z"/>
</g>
<polygon fill="none" stroke="#FFFFFF" stroke-width="1.5" stroke-miterlimit="10" points="-239.308,-49.2 -239.308,-70.8 
	-220.693,-60.001 "/>
<text transform="matrix(1 0 0 1 168.6816 -54.6289)" fill="#FFFFFF" font-family="'FuturaPT-Book'" font-size="14">00:07 / 05:35</text>
<rect x="-280" y="-98" fill-rule="evenodd" clip-rule="evenodd" fill="#B3B3B3" width="978" height="5"/>
<rect x="-280" y="-98" fill-rule="evenodd" clip-rule="evenodd" fill="#EF453E" width="100" height="5"/>
<g>
	<g>
		<path fill="#FFFFFF" d="M552.565-69.228v18.455h-28.922v-18.455H552.565 M553.368-70.03h-30.527v20.061h30.527V-70.03
			L553.368-70.03z"/>
	</g>
	<path fill="#FFFFFF" d="M529.216-60.094c0,2.855,2.155,5.37,5.066,5.37c0.839,0,1.593-0.262,2.349-0.618v-2.404
		c-0.563,0.646-1.429,1.1-2.293,1.1c-1.882,0-3.036-1.745-3.036-3.488c0-1.785,1.114-3.57,3.05-3.57
		c0.865,0,1.716,0.412,2.279,1.099v-2.418c-0.7-0.384-1.497-0.604-2.307-0.604C531.289-65.628,529.216-63.032,529.216-60.094"/>
	<path fill="#FFFFFF" d="M538.907-60.094c0,2.855,2.156,5.37,5.066,5.37c0.839,0,1.593-0.262,2.349-0.618v-2.404
		c-0.563,0.646-1.429,1.1-2.294,1.1c-1.881,0-3.033-1.745-3.033-3.488c0-1.785,1.112-3.57,3.048-3.57
		c0.865,0,1.716,0.412,2.279,1.099v-2.418c-0.699-0.384-1.497-0.604-2.307-0.604C540.98-65.628,538.907-63.032,538.907-60.094"/>
</g>
<g>
	<polygon fill="#FFFFFF" points="593.323,-61.01 589.89,-61.01 589.89,-64.761 588.032,-64.761 588.032,-55.237 589.89,-55.237 
		589.89,-59.494 593.323,-59.494 593.323,-55.237 595.182,-55.237 595.182,-64.761 593.323,-64.761 	"/>
	<path fill="#FFFFFF" d="M600.521-64.761h-2.652v9.523h2.64c2.716,0,4.608-2.072,4.608-4.75
		C605.116-62.702,603.273-64.761,600.521-64.761 M600.027-56.854h-0.303v-6.289h0.303c2.109,0,3.17,1.073,3.17,3.145
		C603.197-58.117,602.313-56.854,600.027-56.854"/>
	<g>
		<path fill="#FFFFFF" d="M610.6-69.228v18.455h-28.922v-18.455H610.6 M611.402-70.03h-30.527v20.061h30.527V-70.03L611.402-70.03z"
			/>
	</g>
</g>
<g>
	<polygon fill="#FFFFFF" points="-365.389,-72.434 -359.913,-72.434 -369.396,-62.951 -368.664,-62.22 -359.182,-71.702 
		-359.182,-66.227 -358.148,-66.227 -358.148,-73.468 -365.389,-73.468 	"/>
	<path fill="#FFFFFF" d="M-374.57-57.69l-9.48,9.606v-5.688h-1.033v7.241h7.24v-1.033h-5.267l9.276-9.4L-374.57-57.69z
		 M-381.443-50.172v-0.212l0.215,0.212H-381.443z"/>
</g>
<circle fill="#FFFFFF" cx="-177.722" cy="-95.537" r="6.544"/>
<rect x="-278" width="40" height="40"/>
<polygon fill="none" stroke="#FFFFFF" stroke-width="1.5" stroke-miterlimit="10" points="-267.308,30.8 -267.308,9.2 
	-248.692,19.999 "/>
<g>
	<g>
		<path fill="#FFFFFF" d="M-130.236,11.47V28.53h-27.527V11.47H-130.236 M-128.736,9.97h-30.527V30.03h30.527V9.97L-128.736,9.97z"
			/>
	</g>
	<path fill="#FFFFFF" d="M-152.889,19.906c0,2.855,2.155,5.37,5.066,5.37c0.839,0,1.593-0.262,2.349-0.618v-2.404
		c-0.563,0.646-1.429,1.1-2.293,1.1c-1.882,0-3.036-1.745-3.036-3.488c0-1.785,1.114-3.57,3.05-3.57
		c0.865,0,1.716,0.412,2.279,1.099v-2.418c-0.7-0.384-1.497-0.604-2.307-0.604C-150.815,14.372-152.889,16.968-152.889,19.906"/>
	<path fill="#FFFFFF" d="M-143.197,19.906c0,2.855,2.156,5.37,5.066,5.37c0.839,0,1.593-0.262,2.349-0.618v-2.404
		c-0.563,0.646-1.429,1.1-2.294,1.1c-1.881,0-3.033-1.745-3.033-3.488c0-1.785,1.112-3.57,3.048-3.57
		c0.865,0,1.716,0.412,2.279,1.099v-2.418c-0.699-0.384-1.497-0.604-2.307-0.604C-141.124,14.372-143.197,16.968-143.197,19.906"/>
</g>
<rect x="-53" display="none" width="40" height="40"/>
<rect x="-113" width="40" height="40"/>
<path fill="#FFFFFF" d="M-108.264,30.03h30.527V9.97h-30.527V30.03z M-94.474,17.393c-0.564-0.687-1.414-1.099-2.28-1.099
	c-1.936,0-3.048,1.785-3.048,3.57c0,1.744,1.153,3.489,3.035,3.489c0.865,0,1.729-0.455,2.293-1.1v2.403
	c-0.757,0.357-1.511,0.618-2.349,0.618c-2.911,0-5.067-2.514-5.067-5.369c0-2.938,2.073-5.535,5.109-5.535
	c0.811,0,1.606,0.221,2.307,0.604V17.393z M-84.781,17.393c-0.564-0.687-1.415-1.099-2.28-1.099c-1.936,0-3.049,1.785-3.049,3.57
	c0,1.744,1.153,3.489,3.036,3.489c0.863,0,1.729-0.455,2.293-1.1v2.403c-0.757,0.357-1.511,0.618-2.35,0.618
	c-2.91,0-5.067-2.514-5.067-5.369c0-2.938,2.074-5.535,5.109-5.535c0.811,0,1.606,0.221,2.308,0.604V17.393z"/>
<rect display="none" width="40" height="40"/>
<g>
	<polygon fill="#FFFFFF" points="-35.815,18.99 -39.249,18.99 -39.249,15.239 -41.106,15.239 -41.106,24.763 -39.249,24.763 
		-39.249,20.506 -35.815,20.506 -35.815,24.763 -33.957,24.763 -33.957,15.239 -35.815,15.239 	"/>
	<path fill="#FFFFFF" d="M-28.618,15.239h-2.652v9.523h2.64c2.716,0,4.608-2.072,4.608-4.75
		C-24.022,17.298-25.865,15.239-28.618,15.239 M-29.111,23.146h-0.303v-6.289h0.303c2.109,0,3.17,1.073,3.17,3.145
		C-25.941,21.883-26.825,23.146-29.111,23.146"/>
	<g>
		<path fill="#FFFFFF" d="M-19.236,11.47V28.53h-27.527V11.47H-19.236 M-17.736,9.97h-30.527V30.03h30.527V9.97L-17.736,9.97z"/>
	</g>
</g>
<g>
	<path fill="#FFFFFF" d="M4.736,30.03h30.527V9.97H4.736V30.03z M19.042,24.763h-1.856v-4.257H13.75v4.257h-1.856v-9.523h1.856
		v3.751h3.436v-3.751h1.856V24.763z M24.369,24.763h-2.641v-9.523h2.651c2.753,0,4.597,2.059,4.597,4.774
		C28.977,22.691,27.084,24.763,24.369,24.763"/>
	<path fill="#FFFFFF" d="M23.889,16.855h-0.303v6.29h0.303c2.286,0,3.17-1.263,3.17-3.145C27.059,17.93,25.998,16.855,23.889,16.855
		"/>
</g>
</svg>
