<?xml version="1.0" encoding="utf-8"?>
<!-- Generator: Adobe Illustrator 16.0.0, SVG Export Plug-In . SVG Version: 6.00 Build 0)  -->
<!DOCTYPE svg PUBLIC "-//W3C//DTD SVG 1.1//EN" "http://www.w3.org/Graphics/SVG/1.1/DTD/svg11.dtd">
<svg version="1.1" id="Layer_1" xmlns="http://www.w3.org/2000/svg" xmlns:xlink="http://www.w3.org/1999/xlink" x="0px" y="0px"
	 width="40px" height="40px" viewBox="0 0 40 40" enable-background="new 0 0 40 40" xml:space="preserve">
<image display="none" overflow="visible" width="1280" height="764" xlink:href="3535D72C.jpg"  transform="matrix(1 0 0 1 -1666 -948)">
</image>
<rect x="-1085" y="-637" width="978" height="550"/>
<image overflow="visible" width="1280" height="720" xlink:href="3535D72B.jpg"  transform="matrix(0.7641 0 0 0.7639 -1085 -637)">
</image>
<image display="none" overflow="visible" width="921" height="550" xlink:href="3535D734.jpg"  transform="matrix(0.9999 0 0 0.9999 -1056.4424 -636.9658)">
</image>
<g display="none" opacity="0.5">
	
		<image display="inline" overflow="visible" width="1495" height="843" xlink:href="3535D736.jpg"  transform="matrix(0.6555 0 0 -0.6524 -1085 -87)">
	</image>
</g>
<rect y="-60" width="40" height="40"/>
<circle fill="none" stroke="#FFFFFF" stroke-width="1.3616" stroke-miterlimit="10" cx="-596" cy="-362" r="47.5"/>
<polygon fill="#FFFFFF" stroke="#FFFFFF" stroke-width="1.8154" stroke-miterlimit="10" points="-610.559,-381.185 
	-610.559,-342.813 -573.441,-362 "/>
<g>
	<polygon fill="#FFFFFF" points="-227.666,-765.471 -221.365,-765.471 -229.277,-757.559 -228.437,-756.717 -220.523,-764.629 
		-220.523,-758.329 -219.334,-758.329 -219.334,-766.662 -227.666,-766.662 	"/>
	<path fill="#FFFFFF" d="M-235.233-751.504l-7.909,8.055v-6.546h-1.19v8.333H-236v-1.189h-6.061l7.676-7.817L-235.233-751.504z
		 M-243.143-742.852v-0.244l0.248,0.244H-243.143z"/>
</g>
<g>
	<path fill="#FFFFFF" d="M-1.57-741.662h38.043v-25H-1.57V-741.662z M16.258-748.228h-2.314v-5.305h-4.28v5.305H7.35v-11.867h2.313
		v4.674h4.28v-4.674h2.314V-748.228z M22.896-748.228h-3.291v-11.867h3.305c3.431,0,5.729,2.564,5.729,5.949
		C28.639-750.809,26.279-748.228,22.896-748.228"/>
	<path fill="#FFFFFF" d="M22.297-758.081H21.92v7.839h0.377c2.85,0,3.951-1.574,3.951-3.919
		C26.248-756.742,24.926-758.081,22.297-758.081"/>
</g>
<polygon fill="#FFFFFF" points="-160.337,-741.662 -160.337,-766.662 -137.14,-754.164 "/>
<path fill="#FFFFFF" d="M-84.665-741.662h38.043v-25h-38.043V-741.662z M-67.479-757.411c-0.703-0.855-1.763-1.369-2.842-1.369
	c-2.412,0-3.798,2.225-3.798,4.448c0,2.174,1.437,4.349,3.782,4.349c1.078,0,2.154-0.566,2.857-1.37v2.995
	c-0.943,0.445-1.883,0.771-2.928,0.771c-3.627,0-6.314-3.133-6.314-6.691c0-3.662,2.584-6.897,6.367-6.897
	c1.01,0,2.002,0.274,2.875,0.753V-757.411z M-55.401-757.411c-0.703-0.855-1.763-1.369-2.842-1.369
	c-2.412,0-3.799,2.225-3.799,4.448c0,2.174,1.438,4.349,3.783,4.349c1.076,0,2.154-0.566,2.857-1.37v2.995
	c-0.943,0.445-1.883,0.771-2.928,0.771c-3.627,0-6.314-3.133-6.314-6.691c0-3.662,2.584-6.897,6.367-6.897
	c1.01,0,2.002,0.274,2.875,0.753V-757.411z"/>
<rect x="-1085" y="-153" opacity="0.9" width="978" height="66"/>
<polygon fill="#FFFFFF" points="-1172.754,-233 -1172.754,-258 -1149.557,-245.502 "/>
<g>
	<polygon fill="#FFFFFF" points="-235.045,-711.668 -231.534,-711.668 -235.943,-706.921 -235.475,-706.416 -231.064,-711.163 
		-231.064,-707.382 -230.401,-707.382 -230.401,-712.383 -235.045,-712.383 	"/>
	<path fill="#FFFFFF" d="M-239.263-703.288l-4.407,4.833v-3.928h-0.663v5h4.644v-0.714h-3.377l4.277-4.691L-239.263-703.288z
		 M-243.67-698.097v-0.146l0.139,0.146H-243.67z"/>
</g>
<g>
	<path fill="#FFFFFF" d="M-109.049-697.383h21.199v-15h-21.199V-697.383z M-99.114-701.322h-1.289v-3.183h-2.386v3.183h-1.29v-7.12
		h1.29v2.804h2.386v-2.804h1.289V-701.322z M-95.415-701.322h-1.834v-7.12h1.842c1.912,0,3.192,1.539,3.192,3.569
		C-92.215-702.871-93.529-701.322-95.415-701.322"/>
	<path fill="#FFFFFF" d="M-95.749-707.234h-0.21v4.704h0.21c1.588,0,2.202-0.945,2.202-2.352
		C-93.547-706.431-94.284-707.234-95.749-707.234"/>
</g>
<polygon fill="#FFFFFF" points="-197.524,-697.383 -197.524,-712.383 -184.598,-704.884 "/>
<polygon fill="#FFFFFF" points="-1044.308,-109.2 -1044.308,-130.8 -1025.693,-120.001 "/>
<polygon fill="#FFFFFF" points="10.692,-29.2 10.692,-50.8 29.308,-40.001 "/>
<rect x="57" y="-60" width="40" height="40"/>
<path fill="#FFFFFF" d="M-155.355-697.383h21.2v-15h-21.2V-697.383z M-145.778-706.832c-0.392-0.514-0.982-0.822-1.584-0.822
	c-1.344,0-2.116,1.335-2.116,2.669c0,1.304,0.801,2.609,2.107,2.609c0.601,0,1.201-0.34,1.593-0.822v1.797
	c-0.525,0.267-1.05,0.462-1.632,0.462c-2.021,0-3.519-1.879-3.519-4.015c0-2.197,1.439-4.139,3.548-4.139
	c0.563,0,1.115,0.165,1.603,0.452V-706.832z M-139.048-706.832c-0.392-0.514-0.982-0.822-1.583-0.822
	c-1.345,0-2.117,1.335-2.117,2.669c0,1.304,0.801,2.609,2.107,2.609c0.601,0,1.201-0.34,1.593-0.822v1.797
	c-0.525,0.267-1.049,0.462-1.632,0.462c-2.021,0-3.519-1.879-3.519-4.015c0-2.197,1.44-4.139,3.549-4.139
	c0.563,0,1.115,0.165,1.602,0.452V-706.832z"/>
<text transform="matrix(1 0 0 1 -636.3184 -114.6289)" fill="#FFFFFF" font-family="'FuturaPT-Book'" font-size="14">00:07 / 05:35</text>
<rect x="-1085" y="-158" fill-rule="evenodd" clip-rule="evenodd" fill="#B3B3B3" width="978" height="5"/>
<rect x="-1085" y="-158" fill-rule="evenodd" clip-rule="evenodd" fill="#EF453E" width="100" height="5"/>
<g>
	<path fill="#FFFFFF" d="M-224.125-109.97h30.527v-20.061h-30.527V-109.97z M-209.819-115.237h-1.856v-4.257h-3.436v4.257h-1.856
		v-9.523h1.856v3.751h3.436v-3.751h1.856V-115.237z M-204.492-115.237h-2.641v-9.523h2.651c2.753,0,4.597,2.059,4.597,4.774
		C-199.885-117.309-201.777-115.237-204.492-115.237"/>
	<path fill="#FFFFFF" d="M-204.973-123.145h-0.303v6.29h0.303c2.286,0,3.17-1.263,3.17-3.145
		C-201.803-122.07-202.863-123.145-204.973-123.145"/>
</g>
<path fill="#FFFFFF" d="M-282.159-109.97h30.527v-20.061h-30.527V-109.97z M-268.369-122.607c-0.564-0.687-1.414-1.099-2.28-1.099
	c-1.936,0-3.048,1.785-3.048,3.57c0,1.744,1.153,3.489,3.035,3.489c0.865,0,1.729-0.455,2.293-1.1v2.403
	c-0.757,0.357-1.511,0.618-2.349,0.618c-2.911,0-5.067-2.514-5.067-5.369c0-2.938,2.073-5.535,5.109-5.535
	c0.811,0,1.606,0.221,2.307,0.604V-122.607z M-258.677-122.607c-0.564-0.687-1.415-1.099-2.28-1.099
	c-1.936,0-3.049,1.785-3.049,3.57c0,1.744,1.153,3.489,3.036,3.489c0.863,0,1.729-0.455,2.293-1.1v2.403
	c-0.757,0.357-1.511,0.618-2.35,0.618c-2.91,0-5.067-2.514-5.067-5.369c0-2.938,2.074-5.535,5.109-5.535
	c0.811,0,1.606,0.221,2.308,0.604V-122.607z"/>
<image overflow="visible" width="1280" height="720" xlink:href="3535D73A.jpg"  transform="matrix(0.7641 0 0 0.7639 -59 -637)">
</image>
<circle fill="none" stroke="#FFFFFF" stroke-width="1.3616" stroke-miterlimit="10" cx="430" cy="-362" r="47.5"/>
<polygon fill="none" stroke="#FFFFFF" stroke-width="1.8154" stroke-miterlimit="10" points="415.441,-381.185 415.441,-342.813 
	452.559,-362 "/>
<rect x="-59" y="-153" opacity="0.9" width="978" height="66"/>
<g>
	<polygon fill="#FFFFFF" points="878.518,-129.771 883.573,-129.771 877.224,-122.935 877.899,-122.208 884.249,-129.043 
		884.249,-123.6 885.204,-123.6 885.204,-130.8 878.518,-130.8 	"/>
	<path fill="#FFFFFF" d="M872.444-117.703l-6.348,6.959v-5.655h-0.955v7.199h6.688v-1.027h-4.862l6.159-6.755L872.444-117.703z
		 M866.097-110.228v-0.211l0.201,0.211H866.097z"/>
</g>
<polygon fill="none" stroke="#FFFFFF" stroke-width="1.5" stroke-miterlimit="10" points="-18.308,-109.2 -18.308,-130.8 
	0.307,-120.001 "/>
<text transform="matrix(1 0 0 1 389.6816 -114.6289)" fill="#FFFFFF" font-family="'FuturaPT-Book'" font-size="14">00:07 / 05:35</text>
<rect x="-59" y="-158" fill-rule="evenodd" clip-rule="evenodd" fill="#B3B3B3" width="978" height="5"/>
<rect x="-59" y="-158" fill-rule="evenodd" clip-rule="evenodd" fill="#EF453E" width="100" height="5"/>
<g>
	<g>
		<path fill="#FFFFFF" d="M773.565-129.228v18.455h-28.922v-18.455H773.565 M774.368-130.03h-30.527v20.061h30.527V-130.03
			L774.368-130.03z"/>
	</g>
	<path fill="#FFFFFF" d="M750.216-120.094c0,2.855,2.155,5.37,5.066,5.37c0.839,0,1.593-0.262,2.349-0.618v-2.404
		c-0.563,0.646-1.429,1.1-2.293,1.1c-1.882,0-3.036-1.745-3.036-3.488c0-1.785,1.114-3.57,3.05-3.57
		c0.865,0,1.716,0.412,2.279,1.099v-2.418c-0.7-0.384-1.497-0.604-2.307-0.604C752.289-125.628,750.216-123.032,750.216-120.094"/>
	<path fill="#FFFFFF" d="M759.907-120.094c0,2.855,2.156,5.37,5.066,5.37c0.839,0,1.593-0.262,2.349-0.618v-2.404
		c-0.563,0.646-1.429,1.1-2.294,1.1c-1.881,0-3.033-1.745-3.033-3.488c0-1.785,1.112-3.57,3.048-3.57
		c0.865,0,1.716,0.412,2.279,1.099v-2.418c-0.699-0.384-1.497-0.604-2.307-0.604C761.98-125.628,759.907-123.032,759.907-120.094"/>
</g>
<g>
	<polygon fill="#FFFFFF" points="814.323,-121.01 810.89,-121.01 810.89,-124.761 809.032,-124.761 809.032,-115.237 
		810.89,-115.237 810.89,-119.494 814.323,-119.494 814.323,-115.237 816.182,-115.237 816.182,-124.761 814.323,-124.761 	"/>
	<path fill="#FFFFFF" d="M821.521-124.761h-2.652v9.523h2.64c2.716,0,4.608-2.072,4.608-4.75
		C826.116-122.702,824.273-124.761,821.521-124.761 M821.027-116.854h-0.303v-6.289h0.303c2.109,0,3.17,1.073,3.17,3.145
		C824.197-118.117,823.313-116.854,821.027-116.854"/>
	<g>
		<path fill="#FFFFFF" d="M831.6-129.228v18.455h-28.922v-18.455H831.6 M832.402-130.03h-30.527v20.061h30.527V-130.03
			L832.402-130.03z"/>
	</g>
</g>
<g>
	<polygon fill="#FFFFFF" points="-144.389,-132.434 -138.913,-132.434 -148.396,-122.951 -147.664,-122.22 -138.182,-131.702 
		-138.182,-126.227 -137.148,-126.227 -137.148,-133.468 -144.389,-133.468 	"/>
	<path fill="#FFFFFF" d="M-153.57-117.69l-9.48,9.606v-5.688h-1.033v7.241h7.24v-1.033h-5.267l9.276-9.4L-153.57-117.69z
		 M-160.443-110.172v-0.212l0.215,0.212H-160.443z"/>
</g>
<circle fill="#FFFFFF" cx="43.278" cy="-155.537" r="6.544"/>
<rect x="-57" y="-60" width="40" height="40"/>
<polygon fill="none" stroke="#FFFFFF" stroke-width="1.5" stroke-miterlimit="10" points="-46.308,-29.2 -46.308,-50.8 
	-27.692,-40.001 "/>
<g>
	<g>
		<path fill="#FFFFFF" d="M90.764-48.53v17.061H63.236V-48.53H90.764 M92.264-50.03H61.736v20.061h30.527V-50.03L92.264-50.03z"/>
	</g>
	<path fill="#FFFFFF" d="M68.111-40.094c0,2.855,2.155,5.37,5.066,5.37c0.839,0,1.593-0.262,2.349-0.618v-2.404
		c-0.563,0.646-1.429,1.1-2.293,1.1c-1.882,0-3.036-1.745-3.036-3.488c0-1.785,1.114-3.57,3.05-3.57
		c0.865,0,1.716,0.412,2.279,1.099v-2.418c-0.7-0.384-1.497-0.604-2.307-0.604C70.185-45.628,68.111-43.032,68.111-40.094"/>
	<path fill="#FFFFFF" d="M77.803-40.094c0,2.855,2.156,5.37,5.066,5.37c0.839,0,1.593-0.262,2.349-0.618v-2.404
		c-0.563,0.646-1.429,1.1-2.294,1.1c-1.881,0-3.033-1.745-3.033-3.488c0-1.785,1.112-3.57,3.048-3.57
		c0.865,0,1.716,0.412,2.279,1.099v-2.418c-0.699-0.384-1.497-0.604-2.307-0.604C79.876-45.628,77.803-43.032,77.803-40.094"/>
</g>
<rect x="168" y="-60" width="40" height="40"/>
<rect x="108" y="-60" width="40" height="40"/>
<path fill="#FFFFFF" d="M112.736-29.97h30.527V-50.03h-30.527V-29.97z M126.526-42.607c-0.564-0.687-1.414-1.099-2.28-1.099
	c-1.936,0-3.048,1.785-3.048,3.57c0,1.744,1.153,3.489,3.035,3.489c0.865,0,1.729-0.455,2.293-1.1v2.403
	c-0.757,0.357-1.511,0.618-2.349,0.618c-2.911,0-5.067-2.514-5.067-5.369c0-2.938,2.073-5.535,5.109-5.535
	c0.811,0,1.606,0.221,2.307,0.604V-42.607z M136.219-42.607c-0.564-0.687-1.415-1.099-2.28-1.099c-1.936,0-3.049,1.785-3.049,3.57
	c0,1.744,1.153,3.489,3.036,3.489c0.863,0,1.729-0.455,2.293-1.1v2.403c-0.757,0.357-1.511,0.618-2.35,0.618
	c-2.91,0-5.067-2.514-5.067-5.369c0-2.938,2.074-5.535,5.109-5.535c0.811,0,1.606,0.221,2.308,0.604V-42.607z"/>
<rect x="221" y="-60" width="40" height="40"/>
<g>
	<polygon fill="#FFFFFF" points="185.185,-41.01 181.751,-41.01 181.751,-44.761 179.894,-44.761 179.894,-35.237 181.751,-35.237 
		181.751,-39.494 185.185,-39.494 185.185,-35.237 187.043,-35.237 187.043,-44.761 185.185,-44.761 	"/>
	<path fill="#FFFFFF" d="M192.382-44.761h-2.652v9.523h2.64c2.716,0,4.608-2.072,4.608-4.75
		C196.978-42.702,195.135-44.761,192.382-44.761 M191.889-36.854h-0.303v-6.289h0.303c2.109,0,3.17,1.073,3.17,3.145
		C195.059-38.117,194.175-36.854,191.889-36.854"/>
	<g>
		<path fill="#FFFFFF" d="M201.764-48.53v17.061h-27.527V-48.53H201.764 M203.264-50.03h-30.527v20.061h30.527V-50.03L203.264-50.03
			z"/>
	</g>
</g>
<rect x="277" y="-60" display="none" width="40" height="40"/>
<rect x="-57" display="none" width="40" height="40"/>
<g>
	<path fill="#FFFFFF" d="M225.736-29.97h30.527V-50.03h-30.527V-29.97z M240.042-35.237h-1.856v-4.257h-3.436v4.257h-1.856v-9.523
		h1.856v3.751h3.436v-3.751h1.856V-35.237z M245.369-35.237h-2.641v-9.523h2.651c2.753,0,4.597,2.059,4.597,4.774
		C249.977-37.309,248.084-35.237,245.369-35.237"/>
	<path fill="#FFFFFF" d="M244.889-43.145h-0.303v6.29h0.303c2.286,0,3.17-1.263,3.17-3.145
		C248.059-42.07,246.998-43.145,244.889-43.145"/>
</g>
<rect x="331" y="-60" display="none" width="40" height="40"/>
<g>
	<polygon fill="#FFFFFF" stroke="#FFFFFF" stroke-width="0.5" stroke-miterlimit="10" points="357.228,-52.434 362.703,-52.434 
		353.221,-42.951 353.952,-42.221 363.435,-51.703 363.435,-46.227 364.468,-46.227 364.468,-53.469 357.228,-53.469 	"/>
	<path fill="#FFFFFF" stroke="#FFFFFF" stroke-width="0.5" stroke-miterlimit="10" d="M348.046-37.691l-9.48,9.607v-5.689h-1.033
		v7.242h7.24v-1.033h-5.267l9.276-9.4L348.046-37.691z M341.173-30.172v-0.213l0.215,0.213H341.173z"/>
</g>
<g>
	<polygon fill="#FFFFFF" stroke="#FFFFFF" stroke-width="0.5" stroke-miterlimit="10" points="300.345,-49.771 305.4,-49.771 
		299.051,-42.935 299.727,-42.208 306.076,-49.043 306.076,-43.6 307.031,-43.6 307.031,-50.8 300.345,-50.8 	"/>
	<path fill="#FFFFFF" stroke="#FFFFFF" stroke-width="0.5" stroke-miterlimit="10" d="M294.271-37.703l-6.348,6.959v-5.655h-0.955
		v7.199h6.688v-1.027h-4.862l6.159-6.755L294.271-37.703z M287.924-30.228v-0.211l0.201,0.211H287.924z"/>
</g>
<rect display="none" width="40" height="40"/>
<g>
	<rect x="-45.037" y="9.2" fill="none" stroke="#FFFFFF" stroke-width="1.5" stroke-miterlimit="10" width="4.682" height="21.6"/>
	<rect x="-33.644" y="9.2" fill="none" stroke="#FFFFFF" stroke-width="1.5" stroke-miterlimit="10" width="4.681" height="21.6"/>
</g>
<g>
	
		<rect x="11.963" y="9.2" fill="#FFFFFF" stroke="#FFFFFF" stroke-width="1.296" stroke-miterlimit="10" width="4.682" height="21.6"/>
	
		<rect x="23.357" y="9.2" fill="#FFFFFF" stroke="#FFFFFF" stroke-width="1.296" stroke-miterlimit="10" width="4.68" height="21.6"/>
</g>
</svg>
