<?xml version="1.0" encoding="utf-8"?>
<!-- Generator: Adobe Illustrator 16.0.0, SVG Export Plug-In . SVG Version: 6.00 Build 0)  -->
<!DOCTYPE svg PUBLIC "-//W3C//DTD SVG 1.1//EN" "http://www.w3.org/Graphics/SVG/1.1/DTD/svg11.dtd">
<svg version="1.1" id="Layer_1" xmlns="http://www.w3.org/2000/svg" xmlns:xlink="http://www.w3.org/1999/xlink" x="0px" y="0px"
	 width="40px" height="40px" viewBox="0 0 40 40" enable-background="new 0 0 40 40" xml:space="preserve">
<image display="none" overflow="visible" width="1280" height="764" xlink:href="8F32686C.jpg"  transform="matrix(1 0 0 1 -1609 -948)">
</image>
<rect x="-1028" y="-637" width="978" height="550"/>
<image overflow="visible" width="1280" height="720" xlink:href="8F32686D.jpg"  transform="matrix(0.7641 0 0 0.7639 -1028 -637)">
</image>
<image display="none" overflow="visible" width="921" height="550" xlink:href="8F32686B.jpg"  transform="matrix(0.9999 0 0 0.9999 -999.4424 -636.9658)">
</image>
<g display="none" opacity="0.5">
	
		<image display="inline" overflow="visible" width="1495" height="843" xlink:href="8F326874.jpg"  transform="matrix(0.6555 0 0 -0.6524 -1028 -87)">
	</image>
</g>
<rect x="57" y="-60" width="40" height="40"/>
<circle fill="none" stroke="#FFFFFF" stroke-width="1.3616" stroke-miterlimit="10" cx="-539" cy="-362" r="47.5"/>
<polygon fill="#FFFFFF" stroke="#FFFFFF" stroke-width="1.8154" stroke-miterlimit="10" points="-553.559,-381.185 
	-553.559,-342.813 -516.441,-362 "/>
<g>
	<polygon fill="#FFFFFF" points="-170.666,-765.471 -164.365,-765.471 -172.277,-757.559 -171.437,-756.717 -163.523,-764.629 
		-163.523,-758.329 -162.334,-758.329 -162.334,-766.662 -170.666,-766.662 	"/>
	<path fill="#FFFFFF" d="M-178.233-751.504l-7.909,8.055v-6.546h-1.19v8.333H-179v-1.189h-6.061l7.676-7.817L-178.233-751.504z
		 M-186.143-742.852v-0.244l0.248,0.244H-186.143z"/>
</g>
<g>
	<path fill="#FFFFFF" d="M55.43-741.662h38.043v-25H55.43V-741.662z M73.258-748.228h-2.314v-5.305h-4.28v5.305H64.35v-11.867h2.313
		v4.674h4.28v-4.674h2.314V-748.228z M79.896-748.228h-3.291v-11.867h3.305c3.431,0,5.729,2.564,5.729,5.949
		C85.639-750.809,83.279-748.228,79.896-748.228"/>
	<path fill="#FFFFFF" d="M79.297-758.081H78.92v7.839h0.377c2.85,0,3.951-1.574,3.951-3.919
		C83.248-756.742,81.926-758.081,79.297-758.081"/>
</g>
<polygon fill="#FFFFFF" points="-103.337,-741.662 -103.337,-766.662 -80.14,-754.164 "/>
<path fill="#FFFFFF" d="M-27.665-741.662h38.043v-25h-38.043V-741.662z M-10.479-757.411c-0.703-0.855-1.763-1.369-2.842-1.369
	c-2.412,0-3.798,2.225-3.798,4.448c0,2.174,1.437,4.349,3.782,4.349c1.078,0,2.154-0.566,2.857-1.37v2.995
	c-0.943,0.445-1.883,0.771-2.928,0.771c-3.627,0-6.314-3.133-6.314-6.691c0-3.662,2.584-6.897,6.367-6.897
	c1.01,0,2.002,0.274,2.875,0.753V-757.411z M1.599-757.411c-0.703-0.855-1.763-1.369-2.842-1.369c-2.412,0-3.799,2.225-3.799,4.448
	c0,2.174,1.438,4.349,3.783,4.349c1.076,0,2.154-0.566,2.857-1.37v2.995c-0.943,0.445-1.883,0.771-2.928,0.771
	c-3.627,0-6.314-3.133-6.314-6.691c0-3.662,2.584-6.897,6.367-6.897c1.01,0,2.002,0.274,2.875,0.753V-757.411z"/>
<rect x="-1028" y="-153" opacity="0.9" width="978" height="66"/>
<polygon fill="#FFFFFF" points="-1115.754,-233 -1115.754,-258 -1092.557,-245.502 "/>
<g>
	<polygon fill="#FFFFFF" points="-178.045,-711.668 -174.534,-711.668 -178.943,-706.921 -178.475,-706.416 -174.064,-711.163 
		-174.064,-707.382 -173.401,-707.382 -173.401,-712.383 -178.045,-712.383 	"/>
	<path fill="#FFFFFF" d="M-182.263-703.288l-4.407,4.833v-3.928h-0.663v5h4.644v-0.714h-3.377l4.277-4.691L-182.263-703.288z
		 M-186.67-698.097v-0.146l0.139,0.146H-186.67z"/>
</g>
<g>
	<path fill="#FFFFFF" d="M-52.049-697.383h21.199v-15h-21.199V-697.383z M-42.114-701.322h-1.289v-3.183h-2.386v3.183h-1.29v-7.12
		h1.29v2.804h2.386v-2.804h1.289V-701.322z M-38.415-701.322h-1.834v-7.12h1.842c1.912,0,3.192,1.539,3.192,3.569
		C-35.215-702.871-36.529-701.322-38.415-701.322"/>
	<path fill="#FFFFFF" d="M-38.749-707.234h-0.21v4.704h0.21c1.588,0,2.202-0.945,2.202-2.352
		C-36.547-706.431-37.284-707.234-38.749-707.234"/>
</g>
<polygon fill="#FFFFFF" points="-140.524,-697.383 -140.524,-712.383 -127.598,-704.884 "/>
<polygon fill="#FFFFFF" points="-987.308,-109.2 -987.308,-130.8 -968.693,-120.001 "/>
<polygon fill="#FFFFFF" points="67.692,-29.2 67.692,-50.8 86.308,-40.001 "/>
<rect x="114" y="-60" width="40" height="40"/>
<path fill="#FFFFFF" d="M-98.355-697.383h21.2v-15h-21.2V-697.383z M-88.778-706.832c-0.392-0.514-0.982-0.822-1.584-0.822
	c-1.344,0-2.116,1.335-2.116,2.669c0,1.304,0.801,2.609,2.107,2.609c0.601,0,1.201-0.34,1.593-0.822v1.797
	c-0.525,0.267-1.05,0.462-1.632,0.462c-2.021,0-3.519-1.879-3.519-4.015c0-2.197,1.439-4.139,3.548-4.139
	c0.563,0,1.115,0.165,1.603,0.452V-706.832z M-82.048-706.832c-0.392-0.514-0.982-0.822-1.583-0.822
	c-1.345,0-2.117,1.335-2.117,2.669c0,1.304,0.801,2.609,2.107,2.609c0.601,0,1.201-0.34,1.593-0.822v1.797
	c-0.525,0.267-1.049,0.462-1.632,0.462c-2.021,0-3.519-1.879-3.519-4.015c0-2.197,1.44-4.139,3.549-4.139
	c0.563,0,1.115,0.165,1.602,0.452V-706.832z"/>
<text transform="matrix(1 0 0 1 -579.3184 -114.6289)" fill="#FFFFFF" font-family="'FuturaPT-Book'" font-size="14">00:07 / 05:35</text>
<rect x="-1028" y="-158" fill-rule="evenodd" clip-rule="evenodd" fill="#B3B3B3" width="978" height="5"/>
<rect x="-1028" y="-158" fill-rule="evenodd" clip-rule="evenodd" fill="#EF453E" width="100" height="5"/>
<g>
	<path fill="#FFFFFF" d="M-167.125-109.97h30.527v-20.061h-30.527V-109.97z M-152.819-115.237h-1.856v-4.257h-3.436v4.257h-1.856
		v-9.523h1.856v3.751h3.436v-3.751h1.856V-115.237z M-147.492-115.237h-2.641v-9.523h2.651c2.753,0,4.597,2.059,4.597,4.774
		C-142.885-117.309-144.777-115.237-147.492-115.237"/>
	<path fill="#FFFFFF" d="M-147.973-123.145h-0.303v6.29h0.303c2.286,0,3.17-1.263,3.17-3.145
		C-144.803-122.07-145.863-123.145-147.973-123.145"/>
</g>
<path fill="#FFFFFF" d="M-225.159-109.97h30.527v-20.061h-30.527V-109.97z M-211.369-122.607c-0.564-0.687-1.414-1.099-2.28-1.099
	c-1.936,0-3.048,1.785-3.048,3.57c0,1.744,1.153,3.489,3.035,3.489c0.865,0,1.729-0.455,2.293-1.1v2.403
	c-0.757,0.357-1.511,0.618-2.349,0.618c-2.911,0-5.067-2.514-5.067-5.369c0-2.938,2.073-5.535,5.109-5.535
	c0.811,0,1.606,0.221,2.307,0.604V-122.607z M-201.677-122.607c-0.564-0.687-1.415-1.099-2.28-1.099
	c-1.936,0-3.049,1.785-3.049,3.57c0,1.744,1.153,3.489,3.036,3.489c0.863,0,1.729-0.455,2.293-1.1v2.403
	c-0.757,0.357-1.511,0.618-2.35,0.618c-2.91,0-5.067-2.514-5.067-5.369c0-2.938,2.074-5.535,5.109-5.535
	c0.811,0,1.606,0.221,2.308,0.604V-122.607z"/>
<image overflow="visible" width="1280" height="720" xlink:href="8F326877.jpg"  transform="matrix(0.7641 0 0 0.7639 -2 -637)">
</image>
<circle fill="none" stroke="#FFFFFF" stroke-width="1.3616" stroke-miterlimit="10" cx="487" cy="-362" r="47.5"/>
<polygon fill="none" stroke="#FFFFFF" stroke-width="1.8154" stroke-miterlimit="10" points="472.441,-381.185 472.441,-342.813 
	509.559,-362 "/>
<rect x="-2" y="-153" opacity="0.9" width="978" height="66"/>
<g>
	<polygon fill="#FFFFFF" points="935.518,-129.771 940.573,-129.771 934.224,-122.935 934.899,-122.208 941.249,-129.043 
		941.249,-123.6 942.204,-123.6 942.204,-130.8 935.518,-130.8 	"/>
	<path fill="#FFFFFF" d="M929.444-117.703l-6.348,6.959v-5.655h-0.955v7.199h6.688v-1.027h-4.862l6.159-6.755L929.444-117.703z
		 M923.097-110.228v-0.211l0.201,0.211H923.097z"/>
</g>
<polygon fill="none" stroke="#FFFFFF" stroke-width="1.5" stroke-miterlimit="10" points="38.692,-109.2 38.692,-130.8 
	57.307,-120.001 "/>
<text transform="matrix(1 0 0 1 446.6816 -114.6289)" fill="#FFFFFF" font-family="'FuturaPT-Book'" font-size="14">00:07 / 05:35</text>
<rect x="-2" y="-158" fill-rule="evenodd" clip-rule="evenodd" fill="#B3B3B3" width="978" height="5"/>
<rect x="-2" y="-158" fill-rule="evenodd" clip-rule="evenodd" fill="#EF453E" width="100" height="5"/>
<g>
	<g>
		<path fill="#FFFFFF" d="M830.565-129.228v18.455h-28.922v-18.455H830.565 M831.368-130.03h-30.527v20.061h30.527V-130.03
			L831.368-130.03z"/>
	</g>
	<path fill="#FFFFFF" d="M807.216-120.094c0,2.855,2.155,5.37,5.066,5.37c0.839,0,1.593-0.262,2.349-0.618v-2.404
		c-0.563,0.646-1.429,1.1-2.293,1.1c-1.882,0-3.036-1.745-3.036-3.488c0-1.785,1.114-3.57,3.05-3.57
		c0.865,0,1.716,0.412,2.279,1.099v-2.418c-0.7-0.384-1.497-0.604-2.307-0.604C809.289-125.628,807.216-123.032,807.216-120.094"/>
	<path fill="#FFFFFF" d="M816.907-120.094c0,2.855,2.156,5.37,5.066,5.37c0.839,0,1.593-0.262,2.349-0.618v-2.404
		c-0.563,0.646-1.429,1.1-2.294,1.1c-1.881,0-3.033-1.745-3.033-3.488c0-1.785,1.112-3.57,3.048-3.57
		c0.865,0,1.716,0.412,2.279,1.099v-2.418c-0.699-0.384-1.497-0.604-2.307-0.604C818.98-125.628,816.907-123.032,816.907-120.094"/>
</g>
<g>
	<polygon fill="#FFFFFF" points="871.323,-121.01 867.89,-121.01 867.89,-124.761 866.032,-124.761 866.032,-115.237 
		867.89,-115.237 867.89,-119.494 871.323,-119.494 871.323,-115.237 873.182,-115.237 873.182,-124.761 871.323,-124.761 	"/>
	<path fill="#FFFFFF" d="M878.521-124.761h-2.652v9.523h2.64c2.716,0,4.608-2.072,4.608-4.75
		C883.116-122.702,881.273-124.761,878.521-124.761 M878.027-116.854h-0.303v-6.289h0.303c2.109,0,3.17,1.073,3.17,3.145
		C881.197-118.117,880.313-116.854,878.027-116.854"/>
	<g>
		<path fill="#FFFFFF" d="M888.6-129.228v18.455h-28.922v-18.455H888.6 M889.402-130.03h-30.527v20.061h30.527V-130.03
			L889.402-130.03z"/>
	</g>
</g>
<g>
	<polygon fill="#FFFFFF" points="-87.389,-132.434 -81.913,-132.434 -91.396,-122.951 -90.664,-122.22 -81.182,-131.702 
		-81.182,-126.227 -80.148,-126.227 -80.148,-133.468 -87.389,-133.468 	"/>
	<path fill="#FFFFFF" d="M-96.57-117.69l-9.48,9.606v-5.688h-1.033v7.241h7.24v-1.033h-5.267l9.276-9.4L-96.57-117.69z
		 M-103.443-110.172v-0.212l0.215,0.212H-103.443z"/>
</g>
<circle fill="#FFFFFF" cx="100.278" cy="-155.537" r="6.544"/>
<rect y="-60" width="40" height="40"/>
<polygon fill="none" stroke="#FFFFFF" stroke-width="1.5" stroke-miterlimit="10" points="10.692,-29.2 10.692,-50.8 
	29.308,-40.001 "/>
<g>
	<g>
		<path fill="#FFFFFF" d="M147.764-48.53v17.061h-27.527V-48.53H147.764 M149.264-50.03h-30.527v20.061h30.527V-50.03L149.264-50.03
			z"/>
	</g>
	<path fill="#FFFFFF" d="M125.111-40.094c0,2.855,2.155,5.37,5.066,5.37c0.839,0,1.593-0.262,2.349-0.618v-2.404
		c-0.563,0.646-1.429,1.1-2.293,1.1c-1.882,0-3.036-1.745-3.036-3.488c0-1.785,1.114-3.57,3.05-3.57
		c0.865,0,1.716,0.412,2.279,1.099v-2.418c-0.7-0.384-1.497-0.604-2.307-0.604C127.185-45.628,125.111-43.032,125.111-40.094"/>
	<path fill="#FFFFFF" d="M134.803-40.094c0,2.855,2.156,5.37,5.066,5.37c0.839,0,1.593-0.262,2.349-0.618v-2.404
		c-0.563,0.646-1.429,1.1-2.294,1.1c-1.881,0-3.033-1.745-3.033-3.488c0-1.785,1.112-3.57,3.048-3.57
		c0.865,0,1.716,0.412,2.279,1.099v-2.418c-0.699-0.384-1.497-0.604-2.307-0.604C136.876-45.628,134.803-43.032,134.803-40.094"/>
</g>
<rect x="225" y="-60" width="40" height="40"/>
<rect x="165" y="-60" width="40" height="40"/>
<path fill="#FFFFFF" d="M169.736-29.97h30.527V-50.03h-30.527V-29.97z M183.526-42.607c-0.564-0.687-1.414-1.099-2.28-1.099
	c-1.936,0-3.048,1.785-3.048,3.57c0,1.744,1.153,3.489,3.035,3.489c0.865,0,1.729-0.455,2.293-1.1v2.403
	c-0.757,0.357-1.511,0.618-2.349,0.618c-2.911,0-5.067-2.514-5.067-5.369c0-2.938,2.073-5.535,5.109-5.535
	c0.811,0,1.606,0.221,2.307,0.604V-42.607z M193.219-42.607c-0.564-0.687-1.415-1.099-2.28-1.099c-1.936,0-3.049,1.785-3.049,3.57
	c0,1.744,1.153,3.489,3.036,3.489c0.863,0,1.729-0.455,2.293-1.1v2.403c-0.757,0.357-1.511,0.618-2.35,0.618
	c-2.91,0-5.067-2.514-5.067-5.369c0-2.938,2.074-5.535,5.109-5.535c0.811,0,1.606,0.221,2.308,0.604V-42.607z"/>
<rect x="278" y="-60" width="40" height="40"/>
<g>
	<polygon fill="#FFFFFF" points="242.185,-41.01 238.751,-41.01 238.751,-44.761 236.894,-44.761 236.894,-35.237 238.751,-35.237 
		238.751,-39.494 242.185,-39.494 242.185,-35.237 244.043,-35.237 244.043,-44.761 242.185,-44.761 	"/>
	<path fill="#FFFFFF" d="M249.382-44.761h-2.652v9.523h2.64c2.716,0,4.608-2.072,4.608-4.75
		C253.978-42.702,252.135-44.761,249.382-44.761 M248.889-36.854h-0.303v-6.289h0.303c2.109,0,3.17,1.073,3.17,3.145
		C252.059-38.117,251.175-36.854,248.889-36.854"/>
	<g>
		<path fill="#FFFFFF" d="M258.764-48.53v17.061h-27.527V-48.53H258.764 M260.264-50.03h-30.527v20.061h30.527V-50.03L260.264-50.03
			z"/>
	</g>
</g>
<rect x="334" y="-60" display="none" width="40" height="40"/>
<rect display="none" width="40" height="40"/>
<g>
	<path fill="#FFFFFF" d="M282.736-29.97h30.527V-50.03h-30.527V-29.97z M297.042-35.237h-1.856v-4.257h-3.436v4.257h-1.856v-9.523
		h1.856v3.751h3.436v-3.751h1.856V-35.237z M302.369-35.237h-2.641v-9.523h2.651c2.753,0,4.597,2.059,4.597,4.774
		C306.977-37.309,305.084-35.237,302.369-35.237"/>
	<path fill="#FFFFFF" d="M301.889-43.145h-0.303v6.29h0.303c2.286,0,3.17-1.263,3.17-3.145
		C305.059-42.07,303.998-43.145,301.889-43.145"/>
</g>
<rect x="388" y="-60" display="none" width="40" height="40"/>
<g>
	<polygon fill="#FFFFFF" stroke="#FFFFFF" stroke-width="0.5" stroke-miterlimit="10" points="414.228,-52.434 419.703,-52.434 
		410.221,-42.951 410.952,-42.221 420.435,-51.703 420.435,-46.227 421.468,-46.227 421.468,-53.469 414.228,-53.469 	"/>
	<path fill="#FFFFFF" stroke="#FFFFFF" stroke-width="0.5" stroke-miterlimit="10" d="M405.046-37.691l-9.48,9.607v-5.689h-1.033
		v7.242h7.24v-1.033h-5.267l9.276-9.4L405.046-37.691z M398.173-30.172v-0.213l0.215,0.213H398.173z"/>
</g>
<g>
	<polygon fill="#FFFFFF" stroke="#FFFFFF" stroke-width="0.5" stroke-miterlimit="10" points="357.345,-49.771 362.4,-49.771 
		356.051,-42.935 356.727,-42.208 363.076,-49.043 363.076,-43.6 364.031,-43.6 364.031,-50.8 357.345,-50.8 	"/>
	<path fill="#FFFFFF" stroke="#FFFFFF" stroke-width="0.5" stroke-miterlimit="10" d="M351.271-37.703l-6.348,6.959v-5.655h-0.955
		v7.199h6.688v-1.027h-4.862l6.159-6.755L351.271-37.703z M344.924-30.228v-0.211l0.201,0.211H344.924z"/>
</g>
<rect x="57" display="none" width="40" height="40"/>
<g>
	<rect x="11.963" y="9.2" fill="none" stroke="#FFFFFF" stroke-width="1.5" stroke-miterlimit="10" width="4.682" height="21.6"/>
	<rect x="23.356" y="9.2" fill="none" stroke="#FFFFFF" stroke-width="1.5" stroke-miterlimit="10" width="4.681" height="21.6"/>
</g>
<g>
	
		<rect x="68.963" y="9.2" fill="#FFFFFF" stroke="#FFFFFF" stroke-width="1.296" stroke-miterlimit="10" width="4.682" height="21.6"/>
	
		<rect x="80.357" y="9.2" fill="#FFFFFF" stroke="#FFFFFF" stroke-width="1.296" stroke-miterlimit="10" width="4.68" height="21.6"/>
</g>
</svg>
