<?xml version="1.0" encoding="utf-8"?>
<!-- Generator: Adobe Illustrator 16.0.0, SVG Export Plug-In . SVG Version: 6.00 Build 0)  -->
<!DOCTYPE svg PUBLIC "-//W3C//DTD SVG 1.1//EN" "http://www.w3.org/Graphics/SVG/1.1/DTD/svg11.dtd">
<svg version="1.1" id="Layer_1" xmlns="http://www.w3.org/2000/svg" xmlns:xlink="http://www.w3.org/1999/xlink" x="0px" y="0px"
	 width="40px" height="40px" viewBox="0 0 40 40" enable-background="new 0 0 40 40" xml:space="preserve">
<image display="none" overflow="visible" width="1280" height="764" xlink:href="83812B16.jpg"  transform="matrix(1 0 0 1 -2110 -888)">
</image>
<rect x="-1529" y="-577" width="978" height="550"/>
<image overflow="visible" width="1280" height="720" xlink:href="83812B1A.jpg"  transform="matrix(0.7641 0 0 0.7639 -1529 -577)">
</image>
<image display="none" overflow="visible" width="921" height="550" xlink:href="83812B1D.jpg"  transform="matrix(0.9999 0 0 0.9999 -1500.4424 -576.9658)">
</image>
<g display="none" opacity="0.5">
	
		<image display="inline" overflow="visible" width="1495" height="843" xlink:href="83812B1E.jpg"  transform="matrix(0.6555 0 0 -0.6524 -1529 -27)">
	</image>
</g>
<rect x="-444" display="none" width="40" height="40"/>
<circle fill="none" stroke="#FFFFFF" stroke-width="1.3616" stroke-miterlimit="10" cx="-1040" cy="-302" r="47.5"/>
<polygon fill="#FFFFFF" stroke="#FFFFFF" stroke-width="1.8154" stroke-miterlimit="10" points="-1054.559,-321.185 
	-1054.559,-282.813 -1017.441,-302 "/>
<g>
	<polygon fill="#FFFFFF" points="-671.666,-705.471 -665.365,-705.471 -673.277,-697.559 -672.437,-696.717 -664.523,-704.629 
		-664.523,-698.329 -663.334,-698.329 -663.334,-706.662 -671.666,-706.662 	"/>
	<path fill="#FFFFFF" d="M-679.233-691.504l-7.909,8.055v-6.546h-1.19v8.333H-680v-1.189h-6.061l7.676-7.817L-679.233-691.504z
		 M-687.143-682.852v-0.244l0.248,0.244H-687.143z"/>
</g>
<g>
	<path fill="#FFFFFF" d="M-445.57-681.662h38.043v-25h-38.043V-681.662z M-427.742-688.228h-2.314v-5.305h-4.28v5.305h-2.313
		v-11.867h2.313v4.674h4.28v-4.674h2.314V-688.228z M-421.104-688.228h-3.291v-11.867h3.305c3.431,0,5.729,2.564,5.729,5.949
		C-415.361-690.809-417.721-688.228-421.104-688.228"/>
	<path fill="#FFFFFF" d="M-421.703-698.081h-0.377v7.839h0.377c2.85,0,3.951-1.574,3.951-3.919
		C-417.752-696.742-419.074-698.081-421.703-698.081"/>
</g>
<polygon fill="#FFFFFF" points="-604.337,-681.662 -604.337,-706.662 -581.14,-694.164 "/>
<path fill="#FFFFFF" d="M-528.665-681.662h38.043v-25h-38.043V-681.662z M-511.479-697.411c-0.703-0.855-1.763-1.369-2.842-1.369
	c-2.412,0-3.798,2.225-3.798,4.448c0,2.174,1.437,4.349,3.782,4.349c1.078,0,2.154-0.566,2.857-1.37v2.995
	c-0.943,0.445-1.883,0.771-2.928,0.771c-3.627,0-6.314-3.133-6.314-6.691c0-3.662,2.584-6.897,6.367-6.897
	c1.01,0,2.002,0.274,2.875,0.753V-697.411z M-499.401-697.411c-0.703-0.855-1.763-1.369-2.842-1.369
	c-2.412,0-3.799,2.225-3.799,4.448c0,2.174,1.438,4.349,3.783,4.349c1.076,0,2.154-0.566,2.857-1.37v2.995
	c-0.943,0.445-1.883,0.771-2.928,0.771c-3.627,0-6.314-3.133-6.314-6.691c0-3.662,2.584-6.897,6.367-6.897
	c1.01,0,2.002,0.274,2.875,0.753V-697.411z"/>
<rect x="-1529" y="-93" opacity="0.9" width="978" height="66"/>
<polygon fill="#FFFFFF" points="-1616.754,-173 -1616.754,-198 -1593.557,-185.502 "/>
<g>
	<polygon fill="#FFFFFF" points="-679.045,-651.668 -675.534,-651.668 -679.943,-646.921 -679.475,-646.416 -675.064,-651.163 
		-675.064,-647.382 -674.401,-647.382 -674.401,-652.383 -679.045,-652.383 	"/>
	<path fill="#FFFFFF" d="M-683.263-643.288l-4.407,4.833v-3.928h-0.663v5h4.644v-0.714h-3.377l4.277-4.691L-683.263-643.288z
		 M-687.67-638.097v-0.146l0.139,0.146H-687.67z"/>
</g>
<g>
	<path fill="#FFFFFF" d="M-553.049-637.383h21.199v-15h-21.199V-637.383z M-543.114-641.322h-1.289v-3.183h-2.386v3.183h-1.29v-7.12
		h1.29v2.804h2.386v-2.804h1.289V-641.322z M-539.415-641.322h-1.834v-7.12h1.842c1.912,0,3.192,1.539,3.192,3.569
		C-536.215-642.871-537.529-641.322-539.415-641.322"/>
	<path fill="#FFFFFF" d="M-539.749-647.234h-0.21v4.704h0.21c1.588,0,2.202-0.945,2.202-2.352
		C-537.547-646.431-538.284-647.234-539.749-647.234"/>
</g>
<polygon fill="#FFFFFF" points="-641.524,-637.383 -641.524,-652.383 -628.598,-644.884 "/>
<polygon fill="#FFFFFF" points="-1488.308,-49.2 -1488.308,-70.8 -1469.693,-60.001 "/>
<polygon fill="#FFFFFF" stroke="#FFFFFF" stroke-width="1.5" stroke-miterlimit="10" points="-433.308,30.8 -433.308,9.2 
	-414.692,19.999 "/>
<rect x="-387" width="40" height="40"/>
<path fill="#FFFFFF" d="M-599.355-637.383h21.2v-15h-21.2V-637.383z M-589.778-646.832c-0.392-0.514-0.982-0.822-1.584-0.822
	c-1.344,0-2.116,1.335-2.116,2.669c0,1.304,0.801,2.609,2.107,2.609c0.601,0,1.201-0.34,1.593-0.822v1.797
	c-0.525,0.267-1.05,0.462-1.632,0.462c-2.021,0-3.519-1.879-3.519-4.015c0-2.197,1.439-4.139,3.548-4.139
	c0.563,0,1.115,0.165,1.603,0.452V-646.832z M-583.048-646.832c-0.392-0.514-0.982-0.822-1.583-0.822
	c-1.345,0-2.117,1.335-2.117,2.669c0,1.304,0.801,2.609,2.107,2.609c0.601,0,1.201-0.34,1.593-0.822v1.797
	c-0.525,0.267-1.049,0.462-1.632,0.462c-2.021,0-3.519-1.879-3.519-4.015c0-2.197,1.44-4.139,3.549-4.139
	c0.563,0,1.115,0.165,1.602,0.452V-646.832z"/>
<text transform="matrix(1 0 0 1 -1080.3184 -54.6289)" fill="#FFFFFF" font-family="'FuturaPT-Book'" font-size="14">00:07 / 05:35</text>
<rect x="-1529" y="-98" fill-rule="evenodd" clip-rule="evenodd" fill="#B3B3B3" width="978" height="5"/>
<rect x="-1529" y="-98" fill-rule="evenodd" clip-rule="evenodd" fill="#EF453E" width="100" height="5"/>
<g>
	<path fill="#FFFFFF" d="M-668.125-49.97h30.527V-70.03h-30.527V-49.97z M-653.819-55.237h-1.856v-4.257h-3.436v4.257h-1.856v-9.523
		h1.856v3.751h3.436v-3.751h1.856V-55.237z M-648.492-55.237h-2.641v-9.523h2.651c2.753,0,4.597,2.059,4.597,4.774
		C-643.885-57.309-645.777-55.237-648.492-55.237"/>
	<path fill="#FFFFFF" d="M-648.973-63.145h-0.303v6.29h0.303c2.286,0,3.17-1.263,3.17-3.145
		C-645.803-62.07-646.863-63.145-648.973-63.145"/>
</g>
<path fill="#FFFFFF" d="M-726.159-49.97h30.527V-70.03h-30.527V-49.97z M-712.369-62.607c-0.564-0.687-1.414-1.099-2.28-1.099
	c-1.936,0-3.048,1.785-3.048,3.57c0,1.744,1.153,3.489,3.035,3.489c0.865,0,1.729-0.455,2.293-1.1v2.403
	c-0.757,0.357-1.511,0.618-2.349,0.618c-2.911,0-5.067-2.514-5.067-5.369c0-2.938,2.073-5.535,5.109-5.535
	c0.811,0,1.606,0.221,2.307,0.604V-62.607z M-702.677-62.607c-0.564-0.687-1.415-1.099-2.28-1.099c-1.936,0-3.049,1.785-3.049,3.57
	c0,1.744,1.153,3.489,3.036,3.489c0.863,0,1.729-0.455,2.293-1.1v2.403c-0.757,0.357-1.511,0.618-2.35,0.618
	c-2.91,0-5.067-2.514-5.067-5.369c0-2.938,2.074-5.535,5.109-5.535c0.811,0,1.606,0.221,2.308,0.604V-62.607z"/>
<image overflow="visible" width="1280" height="720" xlink:href="83812B1C.jpg"  transform="matrix(0.7641 0 0 0.7639 -503 -577)">
</image>
<circle fill="none" stroke="#FFFFFF" stroke-width="1.3616" stroke-miterlimit="10" cx="-14" cy="-302" r="47.5"/>
<polygon fill="none" stroke="#FFFFFF" stroke-width="1.8154" stroke-miterlimit="10" points="-28.559,-321.185 -28.559,-282.813 
	8.559,-302 "/>
<rect x="-503" y="-93" opacity="0.9" width="978" height="66"/>
<g>
	<polygon fill="#FFFFFF" points="434.518,-69.771 439.573,-69.771 433.224,-62.935 433.899,-62.208 440.249,-69.043 440.249,-63.6 
		441.204,-63.6 441.204,-70.8 434.518,-70.8 	"/>
	<path fill="#FFFFFF" d="M428.444-57.703l-6.348,6.959v-5.655h-0.955v7.199h6.688v-1.027h-4.862l6.159-6.755L428.444-57.703z
		 M422.097-50.228v-0.211l0.201,0.211H422.097z"/>
</g>
<polygon fill="none" stroke="#FFFFFF" stroke-width="1.5" stroke-miterlimit="10" points="-462.308,-49.2 -462.308,-70.8 
	-443.693,-60.001 "/>
<text transform="matrix(1 0 0 1 -54.3184 -54.6289)" fill="#FFFFFF" font-family="'FuturaPT-Book'" font-size="14">00:07 / 05:35</text>
<rect x="-503" y="-98" fill-rule="evenodd" clip-rule="evenodd" fill="#B3B3B3" width="978" height="5"/>
<rect x="-503" y="-98" fill-rule="evenodd" clip-rule="evenodd" fill="#EF453E" width="100" height="5"/>
<g>
	<g>
		<path fill="#FFFFFF" d="M329.565-69.228v18.455h-28.922v-18.455H329.565 M330.368-70.03h-30.527v20.061h30.527V-70.03
			L330.368-70.03z"/>
	</g>
	<path fill="#FFFFFF" d="M306.216-60.094c0,2.855,2.155,5.37,5.066,5.37c0.839,0,1.593-0.262,2.349-0.618v-2.404
		c-0.563,0.646-1.429,1.1-2.293,1.1c-1.882,0-3.036-1.745-3.036-3.488c0-1.785,1.114-3.57,3.05-3.57
		c0.865,0,1.716,0.412,2.279,1.099v-2.418c-0.7-0.384-1.497-0.604-2.307-0.604C308.289-65.628,306.216-63.032,306.216-60.094"/>
	<path fill="#FFFFFF" d="M315.907-60.094c0,2.855,2.156,5.37,5.066,5.37c0.839,0,1.593-0.262,2.349-0.618v-2.404
		c-0.563,0.646-1.429,1.1-2.294,1.1c-1.881,0-3.033-1.745-3.033-3.488c0-1.785,1.112-3.57,3.048-3.57
		c0.865,0,1.716,0.412,2.279,1.099v-2.418c-0.699-0.384-1.497-0.604-2.307-0.604C317.98-65.628,315.907-63.032,315.907-60.094"/>
</g>
<g>
	<polygon fill="#FFFFFF" points="370.323,-61.01 366.89,-61.01 366.89,-64.761 365.032,-64.761 365.032,-55.237 366.89,-55.237 
		366.89,-59.494 370.323,-59.494 370.323,-55.237 372.182,-55.237 372.182,-64.761 370.323,-64.761 	"/>
	<path fill="#FFFFFF" d="M377.521-64.761h-2.652v9.523h2.64c2.716,0,4.608-2.072,4.608-4.75
		C382.116-62.702,380.273-64.761,377.521-64.761 M377.027-56.854h-0.303v-6.289h0.303c2.109,0,3.17,1.073,3.17,3.145
		C380.197-58.117,379.313-56.854,377.027-56.854"/>
	<g>
		<path fill="#FFFFFF" d="M387.6-69.228v18.455h-28.922v-18.455H387.6 M388.402-70.03h-30.527v20.061h30.527V-70.03L388.402-70.03z"
			/>
	</g>
</g>
<g>
	<polygon fill="#FFFFFF" points="-588.389,-72.434 -582.913,-72.434 -592.396,-62.951 -591.664,-62.22 -582.182,-71.702 
		-582.182,-66.227 -581.148,-66.227 -581.148,-73.468 -588.389,-73.468 	"/>
	<path fill="#FFFFFF" d="M-597.57-57.69l-9.48,9.606v-5.688h-1.033v7.241h7.24v-1.033h-5.267l9.276-9.4L-597.57-57.69z
		 M-604.443-50.172v-0.212l0.215,0.212H-604.443z"/>
</g>
<circle fill="#FFFFFF" cx="-400.722" cy="-95.537" r="6.544"/>
<rect x="-501" width="40" height="40"/>
<polygon fill="none" stroke="#FFFFFF" stroke-width="1.5" stroke-miterlimit="10" points="-490.308,30.8 -490.308,9.2 
	-471.692,19.999 "/>
<g>
	<g>
		<path fill="#FFFFFF" d="M-353.236,11.47V28.53h-27.527V11.47H-353.236 M-351.736,9.97h-30.527V30.03h30.527V9.97L-351.736,9.97z"
			/>
	</g>
	<path fill="#FFFFFF" d="M-375.889,19.906c0,2.855,2.155,5.37,5.066,5.37c0.839,0,1.593-0.262,2.349-0.618v-2.404
		c-0.563,0.646-1.429,1.1-2.293,1.1c-1.882,0-3.036-1.745-3.036-3.488c0-1.785,1.114-3.57,3.05-3.57
		c0.865,0,1.716,0.412,2.279,1.099v-2.418c-0.7-0.384-1.497-0.604-2.307-0.604C-373.815,14.372-375.889,16.968-375.889,19.906"/>
	<path fill="#FFFFFF" d="M-366.197,19.906c0,2.855,2.156,5.37,5.066,5.37c0.839,0,1.593-0.262,2.349-0.618v-2.404
		c-0.563,0.646-1.429,1.1-2.294,1.1c-1.881,0-3.033-1.745-3.033-3.488c0-1.785,1.112-3.57,3.048-3.57
		c0.865,0,1.716,0.412,2.279,1.099v-2.418c-0.699-0.384-1.497-0.604-2.307-0.604C-364.124,14.372-366.197,16.968-366.197,19.906"/>
</g>
<rect x="-276" width="40" height="40"/>
<rect x="49" display="none" width="40" height="40"/>
<rect x="-336" width="40" height="40"/>
<path fill="#FFFFFF" d="M-331.264,30.03h30.527V9.97h-30.527V30.03z M-317.474,17.393c-0.564-0.687-1.414-1.099-2.28-1.099
	c-1.936,0-3.048,1.785-3.048,3.57c0,1.744,1.153,3.489,3.035,3.489c0.865,0,1.729-0.455,2.293-1.1v2.403
	c-0.757,0.357-1.511,0.618-2.349,0.618c-2.911,0-5.067-2.514-5.067-5.369c0-2.938,2.073-5.535,5.109-5.535
	c0.811,0,1.606,0.221,2.307,0.604V17.393z M-307.781,17.393c-0.564-0.687-1.415-1.099-2.28-1.099c-1.936,0-3.049,1.785-3.049,3.57
	c0,1.744,1.153,3.489,3.036,3.489c0.863,0,1.729-0.455,2.293-1.1v2.403c-0.757,0.357-1.511,0.618-2.35,0.618
	c-2.91,0-5.067-2.514-5.067-5.369c0-2.938,2.074-5.535,5.109-5.535c0.811,0,1.606,0.221,2.308,0.604V17.393z"/>
<rect x="-223" width="40" height="40"/>
<g>
	<polygon fill="#FFFFFF" points="-258.815,18.99 -262.249,18.99 -262.249,15.239 -264.106,15.239 -264.106,24.763 -262.249,24.763 
		-262.249,20.506 -258.815,20.506 -258.815,24.763 -256.957,24.763 -256.957,15.239 -258.815,15.239 	"/>
	<path fill="#FFFFFF" d="M-251.618,15.239h-2.652v9.523h2.64c2.716,0,4.608-2.072,4.608-4.75
		C-247.022,17.298-248.865,15.239-251.618,15.239 M-252.111,23.146h-0.303v-6.289h0.303c2.109,0,3.17,1.073,3.17,3.145
		C-248.941,21.883-249.825,23.146-252.111,23.146"/>
	<g>
		<path fill="#FFFFFF" d="M-242.236,11.47V28.53h-27.527V11.47H-242.236 M-240.736,9.97h-30.527V30.03h30.527V9.97L-240.736,9.97z"
			/>
	</g>
</g>
<rect x="-167" width="40" height="40"/>
<rect x="-501" y="60" width="40" height="40"/>
<g>
	<path fill="#FFFFFF" d="M-218.264,30.03h30.527V9.97h-30.527V30.03z M-203.958,24.763h-1.856v-4.257h-3.436v4.257h-1.856v-9.523
		h1.856v3.751h3.436v-3.751h1.856V24.763z M-198.631,24.763h-2.641v-9.523h2.651c2.753,0,4.597,2.059,4.597,4.774
		C-194.023,22.691-195.916,24.763-198.631,24.763"/>
	<path fill="#FFFFFF" d="M-199.111,16.855h-0.303v6.29h0.303c2.286,0,3.17-1.263,3.17-3.145
		C-195.941,17.93-197.002,16.855-199.111,16.855"/>
</g>
<rect x="-113" width="40" height="40"/>
<polygon fill="#FFFFFF" stroke="#FFFFFF" stroke-width="0.5" stroke-miterlimit="10" points="-86.771,7.566 -81.297,7.566 
	-90.779,17.049 -90.047,17.779 -80.564,8.297 -80.564,13.773 -79.531,13.773 -79.531,6.531 -86.771,6.531 "/>
<path fill="#FFFFFF" stroke="#FFFFFF" stroke-width="0.5" stroke-miterlimit="10" d="M-95.953,22.309l-9.48,9.607v-5.689h-1.033
	v7.242h7.24v-1.033h-5.268l9.277-9.4L-95.953,22.309z M-102.826,29.828v-0.213l0.215,0.213H-102.826z"/>
<rect display="none" width="40" height="40"/>
<g>
	<polygon fill="#FFFFFF" stroke="#FFFFFF" stroke-width="0.5" stroke-miterlimit="10" points="23.256,10.539 23.256,16.014 
		32.738,6.531 33.469,7.264 23.986,16.746 29.463,16.746 29.463,17.779 22.221,17.779 22.221,10.539 	"/>
	<path fill="#FFFFFF" stroke="#FFFFFF" stroke-width="0.5" stroke-miterlimit="10" d="M7.305,33.514l9.4-9.277v5.268h1.033v-7.24
		h-7.242v1.033h5.689l-9.607,9.48L7.305,33.514z M14.098,26.119l-0.213-0.215h0.213V26.119z"/>
</g>
<polygon fill="#FFFFFF" stroke="#FFFFFF" stroke-width="0.5" stroke-miterlimit="10" points="-143.655,10.229 -138.6,10.229 
	-144.949,17.065 -144.273,17.792 -137.924,10.957 -137.924,16.4 -136.969,16.4 -136.969,9.2 -143.655,9.2 "/>
<path fill="#FFFFFF" stroke="#FFFFFF" stroke-width="0.5" stroke-miterlimit="10" d="M-149.729,22.297l-6.348,6.959v-5.655h-0.955
	V30.8h6.688v-1.027h-4.862l6.159-6.755L-149.729,22.297z M-156.076,29.772v-0.211l0.201,0.211H-156.076z"/>
<rect x="49" y="70.777" width="40" height="40"/>
<polygon fill="#FFFFFF" stroke="#FFFFFF" stroke-width="0.5" stroke-miterlimit="10" points="71.774,81.577 71.774,86.633 
	78.61,80.283 79.337,80.959 72.502,87.309 77.945,87.309 77.945,88.264 70.745,88.264 70.745,81.577 "/>
<path fill="#FFFFFF" stroke="#FFFFFF" stroke-width="0.5" stroke-miterlimit="10" d="M59.43,101.318l6.755-6.159v4.862h1.027v-6.688
	h-7.199v0.955h5.655l-6.959,6.348L59.43,101.318z M66.185,94.49l-0.211-0.201h0.211V94.49z"/>
<g>
	<polygon fill="#FFFFFF" stroke="#FFFFFF" stroke-width="0.5" stroke-miterlimit="10" points="74.906,7.825 74.906,12.881 
		81.742,6.531 82.469,7.207 75.634,13.557 81.077,13.557 81.077,14.512 73.877,14.512 73.877,7.825 	"/>
	<path fill="#FFFFFF" stroke="#FFFFFF" stroke-width="0.5" stroke-miterlimit="10" d="M56.299,33.514l6.755-6.159v4.862h1.027
		v-6.688h-7.199v0.955h5.655l-6.959,6.348L56.299,33.514z M63.054,26.686l-0.211-0.201h0.211V26.686z"/>
</g>
<rect x="-444" y="60" width="40" height="40"/>
<g>
	
		<rect x="-489.037" y="69.2" fill="none" stroke="#FFFFFF" stroke-width="1.5" stroke-miterlimit="10" width="4.682" height="21.6"/>
	
		<rect x="-477.644" y="69.2" fill="none" stroke="#FFFFFF" stroke-width="1.5" stroke-miterlimit="10" width="4.681" height="21.6"/>
</g>
<g>
	
		<rect x="-432.037" y="69.2" fill="#FFFFFF" stroke="#FFFFFF" stroke-width="1.296" stroke-miterlimit="10" width="4.682" height="21.6"/>
	
		<rect x="-420.643" y="69.2" fill="#FFFFFF" stroke="#FFFFFF" stroke-width="1.296" stroke-miterlimit="10" width="4.68" height="21.6"/>
</g>
</svg>
