<?xml version="1.0" encoding="utf-8"?>
<!-- Generator: Adobe Illustrator 16.0.0, SVG Export Plug-In . SVG Version: 6.00 Build 0)  -->
<!DOCTYPE svg PUBLIC "-//W3C//DTD SVG 1.1//EN" "http://www.w3.org/Graphics/SVG/1.1/DTD/svg11.dtd">
<svg version="1.1" id="Layer_1" xmlns="http://www.w3.org/2000/svg" xmlns:xlink="http://www.w3.org/1999/xlink" x="0px" y="0px"
	 width="40px" height="40px" viewBox="0 0 40 40" enable-background="new 0 0 40 40" xml:space="preserve">
<image display="none" overflow="visible" width="1280" height="764" xlink:href="4A85F6ED.jpg"  transform="matrix(1 0 0 1 -1666 -888)">
</image>
<rect x="-1085" y="-577" width="978" height="550"/>
<image overflow="visible" width="1280" height="720" xlink:href="4A85F6F3.jpg"  transform="matrix(0.7641 0 0 0.7639 -1085 -577)">
</image>
<image display="none" overflow="visible" width="921" height="550" xlink:href="4A85F6F7.jpg"  transform="matrix(0.9999 0 0 0.9999 -1056.4424 -576.9658)">
</image>
<g display="none" opacity="0.5">
	
		<image display="inline" overflow="visible" width="1495" height="843" xlink:href="4A85F6FA.jpg"  transform="matrix(0.6555 0 0 -0.6524 -1085 -27)">
	</image>
</g>
<rect display="none" width="40" height="40"/>
<circle fill="none" stroke="#FFFFFF" stroke-width="1.3616" stroke-miterlimit="10" cx="-596" cy="-302" r="47.5"/>
<polygon fill="#FFFFFF" stroke="#FFFFFF" stroke-width="1.8154" stroke-miterlimit="10" points="-610.559,-321.185 
	-610.559,-282.813 -573.441,-302 "/>
<g>
	<polygon fill="#FFFFFF" points="-227.666,-705.471 -221.365,-705.471 -229.277,-697.559 -228.437,-696.717 -220.523,-704.629 
		-220.523,-698.329 -219.334,-698.329 -219.334,-706.662 -227.666,-706.662 	"/>
	<path fill="#FFFFFF" d="M-235.233-691.504l-7.909,8.055v-6.546h-1.19v8.333H-236v-1.189h-6.061l7.676-7.817L-235.233-691.504z
		 M-243.143-682.852v-0.244l0.248,0.244H-243.143z"/>
</g>
<g>
	<path fill="#FFFFFF" d="M-1.57-681.662h38.043v-25H-1.57V-681.662z M16.258-688.228h-2.314v-5.305h-4.28v5.305H7.35v-11.867h2.313
		v4.674h4.28v-4.674h2.314V-688.228z M22.896-688.228h-3.291v-11.867h3.305c3.431,0,5.729,2.564,5.729,5.949
		C28.639-690.809,26.279-688.228,22.896-688.228"/>
	<path fill="#FFFFFF" d="M22.297-698.081H21.92v7.839h0.377c2.85,0,3.951-1.574,3.951-3.919
		C26.248-696.742,24.926-698.081,22.297-698.081"/>
</g>
<polygon fill="#FFFFFF" points="-160.337,-681.662 -160.337,-706.662 -137.14,-694.164 "/>
<path fill="#FFFFFF" d="M-84.665-681.662h38.043v-25h-38.043V-681.662z M-67.479-697.411c-0.703-0.855-1.763-1.369-2.842-1.369
	c-2.412,0-3.798,2.225-3.798,4.448c0,2.174,1.437,4.349,3.782,4.349c1.078,0,2.154-0.566,2.857-1.37v2.995
	c-0.943,0.445-1.883,0.771-2.928,0.771c-3.627,0-6.314-3.133-6.314-6.691c0-3.662,2.584-6.897,6.367-6.897
	c1.01,0,2.002,0.274,2.875,0.753V-697.411z M-55.401-697.411c-0.703-0.855-1.763-1.369-2.842-1.369
	c-2.412,0-3.799,2.225-3.799,4.448c0,2.174,1.438,4.349,3.783,4.349c1.076,0,2.154-0.566,2.857-1.37v2.995
	c-0.943,0.445-1.883,0.771-2.928,0.771c-3.627,0-6.314-3.133-6.314-6.691c0-3.662,2.584-6.897,6.367-6.897
	c1.01,0,2.002,0.274,2.875,0.753V-697.411z"/>
<rect x="-1085" y="-93" opacity="0.9" width="978" height="66"/>
<polygon fill="#FFFFFF" points="-1172.754,-173 -1172.754,-198 -1149.557,-185.502 "/>
<g>
	<polygon fill="#FFFFFF" points="-235.045,-651.668 -231.534,-651.668 -235.943,-646.921 -235.475,-646.416 -231.064,-651.163 
		-231.064,-647.382 -230.401,-647.382 -230.401,-652.383 -235.045,-652.383 	"/>
	<path fill="#FFFFFF" d="M-239.263-643.288l-4.407,4.833v-3.928h-0.663v5h4.644v-0.714h-3.377l4.277-4.691L-239.263-643.288z
		 M-243.67-638.097v-0.146l0.139,0.146H-243.67z"/>
</g>
<g>
	<path fill="#FFFFFF" d="M-109.049-637.383h21.199v-15h-21.199V-637.383z M-99.114-641.322h-1.289v-3.183h-2.386v3.183h-1.29v-7.12
		h1.29v2.804h2.386v-2.804h1.289V-641.322z M-95.415-641.322h-1.834v-7.12h1.842c1.912,0,3.192,1.539,3.192,3.569
		C-92.215-642.871-93.529-641.322-95.415-641.322"/>
	<path fill="#FFFFFF" d="M-95.749-647.234h-0.21v4.704h0.21c1.588,0,2.202-0.945,2.202-2.352
		C-93.547-646.431-94.284-647.234-95.749-647.234"/>
</g>
<polygon fill="#FFFFFF" points="-197.524,-637.383 -197.524,-652.383 -184.598,-644.884 "/>
<polygon fill="#FFFFFF" points="-1044.308,-49.2 -1044.308,-70.8 -1025.693,-60.001 "/>
<polygon fill="#FFFFFF" stroke="#FFFFFF" stroke-width="1.5" stroke-miterlimit="10" points="10.692,30.8 10.692,9.2 29.308,19.999 
	"/>
<rect x="57" width="40" height="40"/>
<path fill="#FFFFFF" d="M-155.355-637.383h21.2v-15h-21.2V-637.383z M-145.778-646.832c-0.392-0.514-0.982-0.822-1.584-0.822
	c-1.344,0-2.116,1.335-2.116,2.669c0,1.304,0.801,2.609,2.107,2.609c0.601,0,1.201-0.34,1.593-0.822v1.797
	c-0.525,0.267-1.05,0.462-1.632,0.462c-2.021,0-3.519-1.879-3.519-4.015c0-2.197,1.439-4.139,3.548-4.139
	c0.563,0,1.115,0.165,1.603,0.452V-646.832z M-139.048-646.832c-0.392-0.514-0.982-0.822-1.583-0.822
	c-1.345,0-2.117,1.335-2.117,2.669c0,1.304,0.801,2.609,2.107,2.609c0.601,0,1.201-0.34,1.593-0.822v1.797
	c-0.525,0.267-1.049,0.462-1.632,0.462c-2.021,0-3.519-1.879-3.519-4.015c0-2.197,1.44-4.139,3.549-4.139
	c0.563,0,1.115,0.165,1.602,0.452V-646.832z"/>
<text transform="matrix(1 0 0 1 -636.3184 -54.6289)" fill="#FFFFFF" font-family="'FuturaPT-Book'" font-size="14">00:07 / 05:35</text>
<rect x="-1085" y="-98" fill-rule="evenodd" clip-rule="evenodd" fill="#B3B3B3" width="978" height="5"/>
<rect x="-1085" y="-98" fill-rule="evenodd" clip-rule="evenodd" fill="#EF453E" width="100" height="5"/>
<g>
	<path fill="#FFFFFF" d="M-224.125-49.97h30.527V-70.03h-30.527V-49.97z M-209.819-55.237h-1.856v-4.257h-3.436v4.257h-1.856v-9.523
		h1.856v3.751h3.436v-3.751h1.856V-55.237z M-204.492-55.237h-2.641v-9.523h2.651c2.753,0,4.597,2.059,4.597,4.774
		C-199.885-57.309-201.777-55.237-204.492-55.237"/>
	<path fill="#FFFFFF" d="M-204.973-63.145h-0.303v6.29h0.303c2.286,0,3.17-1.263,3.17-3.145
		C-201.803-62.07-202.863-63.145-204.973-63.145"/>
</g>
<path fill="#FFFFFF" d="M-282.159-49.97h30.527V-70.03h-30.527V-49.97z M-268.369-62.607c-0.564-0.687-1.414-1.099-2.28-1.099
	c-1.936,0-3.048,1.785-3.048,3.57c0,1.744,1.153,3.489,3.035,3.489c0.865,0,1.729-0.455,2.293-1.1v2.403
	c-0.757,0.357-1.511,0.618-2.349,0.618c-2.911,0-5.067-2.514-5.067-5.369c0-2.938,2.073-5.535,5.109-5.535
	c0.811,0,1.606,0.221,2.307,0.604V-62.607z M-258.677-62.607c-0.564-0.687-1.415-1.099-2.28-1.099c-1.936,0-3.049,1.785-3.049,3.57
	c0,1.744,1.153,3.489,3.036,3.489c0.863,0,1.729-0.455,2.293-1.1v2.403c-0.757,0.357-1.511,0.618-2.35,0.618
	c-2.91,0-5.067-2.514-5.067-5.369c0-2.938,2.074-5.535,5.109-5.535c0.811,0,1.606,0.221,2.308,0.604V-62.607z"/>
<image overflow="visible" width="1280" height="720" xlink:href="4A85F6FB.jpg"  transform="matrix(0.7641 0 0 0.7639 -59 -577)">
</image>
<circle fill="none" stroke="#FFFFFF" stroke-width="1.3616" stroke-miterlimit="10" cx="430" cy="-302" r="47.5"/>
<polygon fill="none" stroke="#FFFFFF" stroke-width="1.8154" stroke-miterlimit="10" points="415.441,-321.185 415.441,-282.813 
	452.559,-302 "/>
<rect x="-59" y="-93" opacity="0.9" width="978" height="66"/>
<g>
	<polygon fill="#FFFFFF" points="878.518,-69.771 883.573,-69.771 877.224,-62.935 877.899,-62.208 884.249,-69.043 884.249,-63.6 
		885.204,-63.6 885.204,-70.8 878.518,-70.8 	"/>
	<path fill="#FFFFFF" d="M872.444-57.703l-6.348,6.959v-5.655h-0.955v7.199h6.688v-1.027h-4.862l6.159-6.755L872.444-57.703z
		 M866.097-50.228v-0.211l0.201,0.211H866.097z"/>
</g>
<polygon fill="none" stroke="#FFFFFF" stroke-width="1.5" stroke-miterlimit="10" points="-18.308,-49.2 -18.308,-70.8 
	0.307,-60.001 "/>
<text transform="matrix(1 0 0 1 389.6816 -54.6289)" fill="#FFFFFF" font-family="'FuturaPT-Book'" font-size="14">00:07 / 05:35</text>
<rect x="-59" y="-98" fill-rule="evenodd" clip-rule="evenodd" fill="#B3B3B3" width="978" height="5"/>
<rect x="-59" y="-98" fill-rule="evenodd" clip-rule="evenodd" fill="#EF453E" width="100" height="5"/>
<g>
	<g>
		<path fill="#FFFFFF" d="M773.565-69.228v18.455h-28.922v-18.455H773.565 M774.368-70.03h-30.527v20.061h30.527V-70.03
			L774.368-70.03z"/>
	</g>
	<path fill="#FFFFFF" d="M750.216-60.094c0,2.855,2.155,5.37,5.066,5.37c0.839,0,1.593-0.262,2.349-0.618v-2.404
		c-0.563,0.646-1.429,1.1-2.293,1.1c-1.882,0-3.036-1.745-3.036-3.488c0-1.785,1.114-3.57,3.05-3.57
		c0.865,0,1.716,0.412,2.279,1.099v-2.418c-0.7-0.384-1.497-0.604-2.307-0.604C752.289-65.628,750.216-63.032,750.216-60.094"/>
	<path fill="#FFFFFF" d="M759.907-60.094c0,2.855,2.156,5.37,5.066,5.37c0.839,0,1.593-0.262,2.349-0.618v-2.404
		c-0.563,0.646-1.429,1.1-2.294,1.1c-1.881,0-3.033-1.745-3.033-3.488c0-1.785,1.112-3.57,3.048-3.57
		c0.865,0,1.716,0.412,2.279,1.099v-2.418c-0.699-0.384-1.497-0.604-2.307-0.604C761.98-65.628,759.907-63.032,759.907-60.094"/>
</g>
<g>
	<polygon fill="#FFFFFF" points="814.323,-61.01 810.89,-61.01 810.89,-64.761 809.032,-64.761 809.032,-55.237 810.89,-55.237 
		810.89,-59.494 814.323,-59.494 814.323,-55.237 816.182,-55.237 816.182,-64.761 814.323,-64.761 	"/>
	<path fill="#FFFFFF" d="M821.521-64.761h-2.652v9.523h2.64c2.716,0,4.608-2.072,4.608-4.75
		C826.116-62.702,824.273-64.761,821.521-64.761 M821.027-56.854h-0.303v-6.289h0.303c2.109,0,3.17,1.073,3.17,3.145
		C824.197-58.117,823.313-56.854,821.027-56.854"/>
	<g>
		<path fill="#FFFFFF" d="M831.6-69.228v18.455h-28.922v-18.455H831.6 M832.402-70.03h-30.527v20.061h30.527V-70.03L832.402-70.03z"
			/>
	</g>
</g>
<g>
	<polygon fill="#FFFFFF" points="-144.389,-72.434 -138.913,-72.434 -148.396,-62.951 -147.664,-62.22 -138.182,-71.702 
		-138.182,-66.227 -137.148,-66.227 -137.148,-73.468 -144.389,-73.468 	"/>
	<path fill="#FFFFFF" d="M-153.57-57.69l-9.48,9.606v-5.688h-1.033v7.241h7.24v-1.033h-5.267l9.276-9.4L-153.57-57.69z
		 M-160.443-50.172v-0.212l0.215,0.212H-160.443z"/>
</g>
<circle fill="#FFFFFF" cx="43.278" cy="-95.537" r="6.544"/>
<rect x="-57" width="40" height="40"/>
<polygon fill="none" stroke="#FFFFFF" stroke-width="1.5" stroke-miterlimit="10" points="-46.308,30.8 -46.308,9.2 -27.692,19.999 
	"/>
<g>
	<g>
		<path fill="#FFFFFF" d="M90.764,11.47V28.53H63.236V11.47H90.764 M92.264,9.97H61.736V30.03h30.527V9.97L92.264,9.97z"/>
	</g>
	<path fill="#FFFFFF" d="M68.111,19.906c0,2.855,2.155,5.37,5.066,5.37c0.839,0,1.593-0.262,2.349-0.618v-2.404
		c-0.563,0.646-1.429,1.1-2.293,1.1c-1.882,0-3.036-1.745-3.036-3.488c0-1.785,1.114-3.57,3.05-3.57
		c0.865,0,1.716,0.412,2.279,1.099v-2.418c-0.7-0.384-1.497-0.604-2.307-0.604C70.185,14.372,68.111,16.968,68.111,19.906"/>
	<path fill="#FFFFFF" d="M77.803,19.906c0,2.855,2.156,5.37,5.066,5.37c0.839,0,1.593-0.262,2.349-0.618v-2.404
		c-0.563,0.646-1.429,1.1-2.294,1.1c-1.881,0-3.033-1.745-3.033-3.488c0-1.785,1.112-3.57,3.048-3.57
		c0.865,0,1.716,0.412,2.279,1.099v-2.418c-0.699-0.384-1.497-0.604-2.307-0.604C79.876,14.372,77.803,16.968,77.803,19.906"/>
</g>
<rect x="168" width="40" height="40"/>
<rect x="108" width="40" height="40"/>
<path fill="#FFFFFF" d="M112.736,30.03h30.527V9.97h-30.527V30.03z M126.526,17.393c-0.564-0.687-1.414-1.099-2.28-1.099
	c-1.936,0-3.048,1.785-3.048,3.57c0,1.744,1.153,3.489,3.035,3.489c0.865,0,1.729-0.455,2.293-1.1v2.403
	c-0.757,0.357-1.511,0.618-2.349,0.618c-2.911,0-5.067-2.514-5.067-5.369c0-2.938,2.073-5.535,5.109-5.535
	c0.811,0,1.606,0.221,2.307,0.604V17.393z M136.219,17.393c-0.564-0.687-1.415-1.099-2.28-1.099c-1.936,0-3.049,1.785-3.049,3.57
	c0,1.744,1.153,3.489,3.036,3.489c0.863,0,1.729-0.455,2.293-1.1v2.403c-0.757,0.357-1.511,0.618-2.35,0.618
	c-2.91,0-5.067-2.514-5.067-5.369c0-2.938,2.074-5.535,5.109-5.535c0.811,0,1.606,0.221,2.308,0.604V17.393z"/>
<rect x="221" width="40" height="40"/>
<g>
	<polygon fill="#FFFFFF" points="185.185,18.99 181.751,18.99 181.751,15.239 179.894,15.239 179.894,24.763 181.751,24.763 
		181.751,20.506 185.185,20.506 185.185,24.763 187.043,24.763 187.043,15.239 185.185,15.239 	"/>
	<path fill="#FFFFFF" d="M192.382,15.239h-2.652v9.523h2.64c2.716,0,4.608-2.072,4.608-4.75
		C196.978,17.298,195.135,15.239,192.382,15.239 M191.889,23.146h-0.303v-6.289h0.303c2.109,0,3.17,1.073,3.17,3.145
		C195.059,21.883,194.175,23.146,191.889,23.146"/>
	<g>
		<path fill="#FFFFFF" d="M201.764,11.47V28.53h-27.527V11.47H201.764 M203.264,9.97h-30.527V30.03h30.527V9.97L203.264,9.97z"/>
	</g>
</g>
<rect x="277" width="40" height="40"/>
<rect x="-57" y="60" width="40" height="40"/>
<g>
	<path fill="#FFFFFF" d="M225.736,30.03h30.527V9.97h-30.527V30.03z M240.042,24.763h-1.856v-4.257h-3.436v4.257h-1.856v-9.523
		h1.856v3.751h3.436v-3.751h1.856V24.763z M245.369,24.763h-2.641v-9.523h2.651c2.753,0,4.597,2.059,4.597,4.774
		C249.977,22.691,248.084,24.763,245.369,24.763"/>
	<path fill="#FFFFFF" d="M244.889,16.855h-0.303v6.29h0.303c2.286,0,3.17-1.263,3.17-3.145
		C248.059,17.93,246.998,16.855,244.889,16.855"/>
</g>
<rect x="331" width="40" height="40"/>
<polygon fill="#FFFFFF" stroke="#FFFFFF" stroke-width="0.5" stroke-miterlimit="10" points="357.229,7.566 362.703,7.566 
	353.221,17.049 353.953,17.779 363.436,8.297 363.436,13.773 364.469,13.773 364.469,6.531 357.229,6.531 "/>
<path fill="#FFFFFF" stroke="#FFFFFF" stroke-width="0.5" stroke-miterlimit="10" d="M348.047,22.309l-9.48,9.607v-5.689h-1.033
	v7.242h7.24v-1.033h-5.268l9.277-9.4L348.047,22.309z M341.174,29.828v-0.213l0.215,0.213H341.174z"/>
<rect x="444" width="40" height="40"/>
<polygon fill="#FFFFFF" stroke="#FFFFFF" stroke-width="0.5" stroke-miterlimit="10" points="467.256,10.539 467.256,16.014 
	476.738,6.531 477.469,7.264 467.986,16.746 473.463,16.746 473.463,17.779 466.221,17.779 466.221,10.539 "/>
<path fill="#FFFFFF" stroke="#FFFFFF" stroke-width="0.5" stroke-miterlimit="10" d="M451.305,33.514l9.4-9.277v5.268h1.033v-7.24
	h-7.242v1.033h5.689l-9.607,9.48L451.305,33.514z M458.098,26.119l-0.213-0.215h0.213V26.119z"/>
<polygon fill="#FFFFFF" stroke="#FFFFFF" stroke-width="0.5" stroke-miterlimit="10" points="300.345,10.229 305.4,10.229 
	299.051,17.065 299.727,17.792 306.076,10.957 306.076,16.4 307.031,16.4 307.031,9.2 300.345,9.2 "/>
<path fill="#FFFFFF" stroke="#FFFFFF" stroke-width="0.5" stroke-miterlimit="10" d="M294.271,22.297l-6.348,6.959v-5.655h-0.955
	V30.8h6.688v-1.027h-4.862l6.159-6.755L294.271,22.297z M287.924,29.772v-0.211l0.201,0.211H287.924z"/>
<rect x="390" width="40" height="40"/>
<polygon fill="#FFFFFF" stroke="#FFFFFF" stroke-width="0.5" stroke-miterlimit="10" points="412.774,10.8 412.774,15.855 
	419.61,9.506 420.337,10.182 413.502,16.531 418.945,16.531 418.945,17.486 411.745,17.486 411.745,10.8 "/>
<path fill="#FFFFFF" stroke="#FFFFFF" stroke-width="0.5" stroke-miterlimit="10" d="M400.43,30.541l6.755-6.159v4.862h1.027v-6.688
	h-7.199v0.955h5.655l-6.959,6.348L400.43,30.541z M407.185,23.713l-0.211-0.201h0.211V23.713z"/>
<rect y="60" width="40" height="40"/>
<g>
	<rect x="-45.037" y="69.2" fill="none" stroke="#FFFFFF" stroke-width="1.5" stroke-miterlimit="10" width="4.682" height="21.6"/>
	<rect x="-33.644" y="69.2" fill="none" stroke="#FFFFFF" stroke-width="1.5" stroke-miterlimit="10" width="4.681" height="21.6"/>
</g>
<g>
	
		<rect x="11.963" y="69.2" fill="#FFFFFF" stroke="#FFFFFF" stroke-width="1.296" stroke-miterlimit="10" width="4.682" height="21.6"/>
	
		<rect x="23.357" y="69.2" fill="#FFFFFF" stroke="#FFFFFF" stroke-width="1.296" stroke-miterlimit="10" width="4.68" height="21.6"/>
</g>
</svg>
