<?xml version="1.0" encoding="utf-8"?>
<!-- Generator: Adobe Illustrator 16.0.0, SVG Export Plug-In . SVG Version: 6.00 Build 0)  -->
<!DOCTYPE svg PUBLIC "-//W3C//DTD SVG 1.1//EN" "http://www.w3.org/Graphics/SVG/1.1/DTD/svg11.dtd">
<svg version="1.1" id="Layer_1" xmlns="http://www.w3.org/2000/svg" xmlns:xlink="http://www.w3.org/1999/xlink" x="0px" y="0px"
	 width="40px" height="40px" viewBox="0 0 40 40" enable-background="new 0 0 40 40" xml:space="preserve">
<image display="none" overflow="visible" width="1280" height="764" xlink:href="22B918D.jpg"  transform="matrix(1 0 0 1 -2159 -888)">
</image>
<rect x="-1578" y="-577" width="978" height="550"/>
<image overflow="visible" width="1280" height="720" xlink:href="22B918F.jpg"  transform="matrix(0.7641 0 0 0.7639 -1578 -577)">
</image>
<image display="none" overflow="visible" width="921" height="550" xlink:href="22B918A.jpg"  transform="matrix(0.9999 0 0 0.9999 -1549.4424 -576.9658)">
</image>
<g display="none" opacity="0.5">
	
		<image display="inline" overflow="visible" width="1495" height="843" xlink:href="22B918B.jpg"  transform="matrix(0.6555 0 0 -0.6524 -1578 -27)">
	</image>
</g>
<rect x="-493" display="none" width="40" height="40"/>
<circle fill="none" stroke="#FFFFFF" stroke-width="1.3616" stroke-miterlimit="10" cx="-1089" cy="-302" r="47.5"/>
<polygon fill="#FFFFFF" stroke="#FFFFFF" stroke-width="1.8154" stroke-miterlimit="10" points="-1103.559,-321.185 
	-1103.559,-282.813 -1066.441,-302 "/>
<g>
	<polygon fill="#FFFFFF" points="-720.666,-705.471 -714.365,-705.471 -722.277,-697.559 -721.437,-696.717 -713.523,-704.629 
		-713.523,-698.329 -712.334,-698.329 -712.334,-706.662 -720.666,-706.662 	"/>
	<path fill="#FFFFFF" d="M-728.233-691.504l-7.909,8.055v-6.546h-1.19v8.333H-729v-1.189h-6.061l7.676-7.817L-728.233-691.504z
		 M-736.143-682.852v-0.244l0.248,0.244H-736.143z"/>
</g>
<g>
	<path fill="#FFFFFF" d="M-494.57-681.662h38.043v-25h-38.043V-681.662z M-476.742-688.228h-2.314v-5.305h-4.28v5.305h-2.313
		v-11.867h2.313v4.674h4.28v-4.674h2.314V-688.228z M-470.104-688.228h-3.291v-11.867h3.305c3.431,0,5.729,2.564,5.729,5.949
		C-464.361-690.809-466.721-688.228-470.104-688.228"/>
	<path fill="#FFFFFF" d="M-470.703-698.081h-0.377v7.839h0.377c2.85,0,3.951-1.574,3.951-3.919
		C-466.752-696.742-468.074-698.081-470.703-698.081"/>
</g>
<polygon fill="#FFFFFF" points="-653.337,-681.662 -653.337,-706.662 -630.14,-694.164 "/>
<path fill="#FFFFFF" d="M-577.665-681.662h38.043v-25h-38.043V-681.662z M-560.479-697.411c-0.703-0.855-1.763-1.369-2.842-1.369
	c-2.412,0-3.798,2.225-3.798,4.448c0,2.174,1.437,4.349,3.782,4.349c1.078,0,2.154-0.566,2.857-1.37v2.995
	c-0.943,0.445-1.883,0.771-2.928,0.771c-3.627,0-6.314-3.133-6.314-6.691c0-3.662,2.584-6.897,6.367-6.897
	c1.01,0,2.002,0.274,2.875,0.753V-697.411z M-548.401-697.411c-0.703-0.855-1.763-1.369-2.842-1.369
	c-2.412,0-3.799,2.225-3.799,4.448c0,2.174,1.438,4.349,3.783,4.349c1.076,0,2.154-0.566,2.857-1.37v2.995
	c-0.943,0.445-1.883,0.771-2.928,0.771c-3.627,0-6.314-3.133-6.314-6.691c0-3.662,2.584-6.897,6.367-6.897
	c1.01,0,2.002,0.274,2.875,0.753V-697.411z"/>
<rect x="-1578" y="-93" opacity="0.9" width="978" height="66"/>
<polygon fill="#FFFFFF" points="-1665.754,-173 -1665.754,-198 -1642.557,-185.502 "/>
<g>
	<polygon fill="#FFFFFF" points="-728.045,-651.668 -724.534,-651.668 -728.943,-646.921 -728.475,-646.416 -724.064,-651.163 
		-724.064,-647.382 -723.401,-647.382 -723.401,-652.383 -728.045,-652.383 	"/>
	<path fill="#FFFFFF" d="M-732.263-643.288l-4.407,4.833v-3.928h-0.663v5h4.644v-0.714h-3.377l4.277-4.691L-732.263-643.288z
		 M-736.67-638.097v-0.146l0.139,0.146H-736.67z"/>
</g>
<g>
	<path fill="#FFFFFF" d="M-602.049-637.383h21.199v-15h-21.199V-637.383z M-592.114-641.322h-1.289v-3.183h-2.386v3.183h-1.29v-7.12
		h1.29v2.804h2.386v-2.804h1.289V-641.322z M-588.415-641.322h-1.834v-7.12h1.842c1.912,0,3.192,1.539,3.192,3.569
		C-585.215-642.871-586.529-641.322-588.415-641.322"/>
	<path fill="#FFFFFF" d="M-588.749-647.234h-0.21v4.704h0.21c1.588,0,2.202-0.945,2.202-2.352
		C-586.547-646.431-587.284-647.234-588.749-647.234"/>
</g>
<polygon fill="#FFFFFF" points="-690.524,-637.383 -690.524,-652.383 -677.598,-644.884 "/>
<polygon fill="#FFFFFF" points="-1537.308,-49.2 -1537.308,-70.8 -1518.693,-60.001 "/>
<polygon fill="#FFFFFF" stroke="#FFFFFF" stroke-width="1.5" stroke-miterlimit="10" points="-482.308,30.8 -482.308,9.2 
	-463.692,19.999 "/>
<rect x="-436" width="40" height="40"/>
<path fill="#FFFFFF" d="M-648.355-637.383h21.2v-15h-21.2V-637.383z M-638.778-646.832c-0.392-0.514-0.982-0.822-1.584-0.822
	c-1.344,0-2.116,1.335-2.116,2.669c0,1.304,0.801,2.609,2.107,2.609c0.601,0,1.201-0.34,1.593-0.822v1.797
	c-0.525,0.267-1.05,0.462-1.632,0.462c-2.021,0-3.519-1.879-3.519-4.015c0-2.197,1.439-4.139,3.548-4.139
	c0.563,0,1.115,0.165,1.603,0.452V-646.832z M-632.048-646.832c-0.392-0.514-0.982-0.822-1.583-0.822
	c-1.345,0-2.117,1.335-2.117,2.669c0,1.304,0.801,2.609,2.107,2.609c0.601,0,1.201-0.34,1.593-0.822v1.797
	c-0.525,0.267-1.049,0.462-1.632,0.462c-2.021,0-3.519-1.879-3.519-4.015c0-2.197,1.44-4.139,3.549-4.139
	c0.563,0,1.115,0.165,1.602,0.452V-646.832z"/>
<text transform="matrix(1 0 0 1 -1129.3184 -54.6289)" fill="#FFFFFF" font-family="'FuturaPT-Book'" font-size="14">00:07 / 05:35</text>
<rect x="-1578" y="-98" fill-rule="evenodd" clip-rule="evenodd" fill="#B3B3B3" width="978" height="5"/>
<rect x="-1578" y="-98" fill-rule="evenodd" clip-rule="evenodd" fill="#EF453E" width="100" height="5"/>
<g>
	<path fill="#FFFFFF" d="M-717.125-49.97h30.527V-70.03h-30.527V-49.97z M-702.819-55.237h-1.856v-4.257h-3.436v4.257h-1.856v-9.523
		h1.856v3.751h3.436v-3.751h1.856V-55.237z M-697.492-55.237h-2.641v-9.523h2.651c2.753,0,4.597,2.059,4.597,4.774
		C-692.885-57.309-694.777-55.237-697.492-55.237"/>
	<path fill="#FFFFFF" d="M-697.973-63.145h-0.303v6.29h0.303c2.286,0,3.17-1.263,3.17-3.145
		C-694.803-62.07-695.863-63.145-697.973-63.145"/>
</g>
<path fill="#FFFFFF" d="M-775.159-49.97h30.527V-70.03h-30.527V-49.97z M-761.369-62.607c-0.564-0.687-1.414-1.099-2.28-1.099
	c-1.936,0-3.048,1.785-3.048,3.57c0,1.744,1.153,3.489,3.035,3.489c0.865,0,1.729-0.455,2.293-1.1v2.403
	c-0.757,0.357-1.511,0.618-2.349,0.618c-2.911,0-5.067-2.514-5.067-5.369c0-2.938,2.073-5.535,5.109-5.535
	c0.811,0,1.606,0.221,2.307,0.604V-62.607z M-751.677-62.607c-0.564-0.687-1.415-1.099-2.28-1.099c-1.936,0-3.049,1.785-3.049,3.57
	c0,1.744,1.153,3.489,3.036,3.489c0.863,0,1.729-0.455,2.293-1.1v2.403c-0.757,0.357-1.511,0.618-2.35,0.618
	c-2.91,0-5.067-2.514-5.067-5.369c0-2.938,2.074-5.535,5.109-5.535c0.811,0,1.606,0.221,2.308,0.604V-62.607z"/>
<image overflow="visible" width="1280" height="720" xlink:href="22B9195.jpg"  transform="matrix(0.7641 0 0 0.7639 -552 -577)">
</image>
<circle fill="none" stroke="#FFFFFF" stroke-width="1.3616" stroke-miterlimit="10" cx="-63" cy="-302" r="47.5"/>
<polygon fill="none" stroke="#FFFFFF" stroke-width="1.8154" stroke-miterlimit="10" points="-77.559,-321.185 -77.559,-282.813 
	-40.441,-302 "/>
<rect x="-552" y="-93" opacity="0.9" width="978" height="66"/>
<g>
	<polygon fill="#FFFFFF" points="385.518,-69.771 390.573,-69.771 384.224,-62.935 384.899,-62.208 391.249,-69.043 391.249,-63.6 
		392.204,-63.6 392.204,-70.8 385.518,-70.8 	"/>
	<path fill="#FFFFFF" d="M379.444-57.703l-6.348,6.959v-5.655h-0.955v7.199h6.688v-1.027h-4.862l6.159-6.755L379.444-57.703z
		 M373.097-50.228v-0.211l0.201,0.211H373.097z"/>
</g>
<polygon fill="none" stroke="#FFFFFF" stroke-width="1.5" stroke-miterlimit="10" points="-511.308,-49.2 -511.308,-70.8 
	-492.693,-60.001 "/>
<text transform="matrix(1 0 0 1 -103.3184 -54.6289)" fill="#FFFFFF" font-family="'FuturaPT-Book'" font-size="14">00:07 / 05:35</text>
<rect x="-552" y="-98" fill-rule="evenodd" clip-rule="evenodd" fill="#B3B3B3" width="978" height="5"/>
<rect x="-552" y="-98" fill-rule="evenodd" clip-rule="evenodd" fill="#EF453E" width="100" height="5"/>
<g>
	<g>
		<path fill="#FFFFFF" d="M280.565-69.228v18.455h-28.922v-18.455H280.565 M281.368-70.03h-30.527v20.061h30.527V-70.03
			L281.368-70.03z"/>
	</g>
	<path fill="#FFFFFF" d="M257.216-60.094c0,2.855,2.155,5.37,5.066,5.37c0.839,0,1.593-0.262,2.349-0.618v-2.404
		c-0.563,0.646-1.429,1.1-2.293,1.1c-1.882,0-3.036-1.745-3.036-3.488c0-1.785,1.114-3.57,3.05-3.57
		c0.865,0,1.716,0.412,2.279,1.099v-2.418c-0.7-0.384-1.497-0.604-2.307-0.604C259.289-65.628,257.216-63.032,257.216-60.094"/>
	<path fill="#FFFFFF" d="M266.907-60.094c0,2.855,2.156,5.37,5.066,5.37c0.839,0,1.593-0.262,2.349-0.618v-2.404
		c-0.563,0.646-1.429,1.1-2.294,1.1c-1.881,0-3.033-1.745-3.033-3.488c0-1.785,1.112-3.57,3.048-3.57
		c0.865,0,1.716,0.412,2.279,1.099v-2.418c-0.699-0.384-1.497-0.604-2.307-0.604C268.98-65.628,266.907-63.032,266.907-60.094"/>
</g>
<g>
	<polygon fill="#FFFFFF" points="321.323,-61.01 317.89,-61.01 317.89,-64.761 316.032,-64.761 316.032,-55.237 317.89,-55.237 
		317.89,-59.494 321.323,-59.494 321.323,-55.237 323.182,-55.237 323.182,-64.761 321.323,-64.761 	"/>
	<path fill="#FFFFFF" d="M328.521-64.761h-2.652v9.523h2.64c2.716,0,4.608-2.072,4.608-4.75
		C333.116-62.702,331.273-64.761,328.521-64.761 M328.027-56.854h-0.303v-6.289h0.303c2.109,0,3.17,1.073,3.17,3.145
		C331.197-58.117,330.313-56.854,328.027-56.854"/>
	<g>
		<path fill="#FFFFFF" d="M338.6-69.228v18.455h-28.922v-18.455H338.6 M339.402-70.03h-30.527v20.061h30.527V-70.03L339.402-70.03z"
			/>
	</g>
</g>
<g>
	<polygon fill="#FFFFFF" points="-637.389,-72.434 -631.913,-72.434 -641.396,-62.951 -640.664,-62.22 -631.182,-71.702 
		-631.182,-66.227 -630.148,-66.227 -630.148,-73.468 -637.389,-73.468 	"/>
	<path fill="#FFFFFF" d="M-646.57-57.69l-9.48,9.606v-5.688h-1.033v7.241h7.24v-1.033h-5.267l9.276-9.4L-646.57-57.69z
		 M-653.443-50.172v-0.212l0.215,0.212H-653.443z"/>
</g>
<circle fill="#FFFFFF" cx="-449.722" cy="-95.537" r="6.544"/>
<rect x="-550" width="40" height="40"/>
<polygon fill="none" stroke="#FFFFFF" stroke-width="1.5" stroke-miterlimit="10" points="-539.308,30.8 -539.308,9.2 
	-520.692,19.999 "/>
<g>
	<g>
		<path fill="#FFFFFF" d="M-402.236,11.47V28.53h-27.527V11.47H-402.236 M-400.736,9.97h-30.527V30.03h30.527V9.97L-400.736,9.97z"
			/>
	</g>
	<path fill="#FFFFFF" d="M-424.889,19.906c0,2.855,2.155,5.37,5.066,5.37c0.839,0,1.593-0.262,2.349-0.618v-2.404
		c-0.563,0.646-1.429,1.1-2.293,1.1c-1.882,0-3.036-1.745-3.036-3.488c0-1.785,1.114-3.57,3.05-3.57
		c0.865,0,1.716,0.412,2.279,1.099v-2.418c-0.7-0.384-1.497-0.604-2.307-0.604C-422.815,14.372-424.889,16.968-424.889,19.906"/>
	<path fill="#FFFFFF" d="M-415.197,19.906c0,2.855,2.156,5.37,5.066,5.37c0.839,0,1.593-0.262,2.349-0.618v-2.404
		c-0.563,0.646-1.429,1.1-2.294,1.1c-1.881,0-3.033-1.745-3.033-3.488c0-1.785,1.112-3.57,3.048-3.57
		c0.865,0,1.716,0.412,2.279,1.099v-2.418c-0.699-0.384-1.497-0.604-2.307-0.604C-413.124,14.372-415.197,16.968-415.197,19.906"/>
</g>
<rect x="-325" width="40" height="40"/>
<rect display="none" width="40" height="40"/>
<rect x="-385" width="40" height="40"/>
<path fill="#FFFFFF" d="M-380.264,30.03h30.527V9.97h-30.527V30.03z M-366.474,17.393c-0.564-0.687-1.414-1.099-2.28-1.099
	c-1.936,0-3.048,1.785-3.048,3.57c0,1.744,1.153,3.489,3.035,3.489c0.865,0,1.729-0.455,2.293-1.1v2.403
	c-0.757,0.357-1.511,0.618-2.349,0.618c-2.911,0-5.067-2.514-5.067-5.369c0-2.938,2.073-5.535,5.109-5.535
	c0.811,0,1.606,0.221,2.307,0.604V17.393z M-356.781,17.393c-0.564-0.687-1.415-1.099-2.28-1.099c-1.936,0-3.049,1.785-3.049,3.57
	c0,1.744,1.153,3.489,3.036,3.489c0.863,0,1.729-0.455,2.293-1.1v2.403c-0.757,0.357-1.511,0.618-2.35,0.618
	c-2.91,0-5.067-2.514-5.067-5.369c0-2.938,2.074-5.535,5.109-5.535c0.811,0,1.606,0.221,2.308,0.604V17.393z"/>
<rect x="-272" width="40" height="40"/>
<g>
	<polygon fill="#FFFFFF" points="-307.815,18.99 -311.249,18.99 -311.249,15.239 -313.106,15.239 -313.106,24.763 -311.249,24.763 
		-311.249,20.506 -307.815,20.506 -307.815,24.763 -305.957,24.763 -305.957,15.239 -307.815,15.239 	"/>
	<path fill="#FFFFFF" d="M-300.618,15.239h-2.652v9.523h2.64c2.716,0,4.608-2.072,4.608-4.75
		C-296.022,17.298-297.865,15.239-300.618,15.239 M-301.111,23.146h-0.303v-6.289h0.303c2.109,0,3.17,1.073,3.17,3.145
		C-297.941,21.883-298.825,23.146-301.111,23.146"/>
	<g>
		<path fill="#FFFFFF" d="M-291.236,11.47V28.53h-27.527V11.47H-291.236 M-289.736,9.97h-30.527V30.03h30.527V9.97L-289.736,9.97z"
			/>
	</g>
</g>
<rect x="-216" width="40" height="40"/>
<rect x="-550" y="60" width="40" height="40"/>
<g>
	<path fill="#FFFFFF" d="M-267.264,30.03h30.527V9.97h-30.527V30.03z M-252.958,24.763h-1.856v-4.257h-3.436v4.257h-1.856v-9.523
		h1.856v3.751h3.436v-3.751h1.856V24.763z M-247.631,24.763h-2.641v-9.523h2.651c2.753,0,4.597,2.059,4.597,4.774
		C-243.023,22.691-244.916,24.763-247.631,24.763"/>
	<path fill="#FFFFFF" d="M-248.111,16.855h-0.303v6.29h0.303c2.286,0,3.17-1.263,3.17-3.145
		C-244.941,17.93-246.002,16.855-248.111,16.855"/>
</g>
<rect x="-162" width="40" height="40"/>
<polygon fill="#FFFFFF" stroke="#FFFFFF" stroke-width="0.5" stroke-miterlimit="10" points="-135.771,7.566 -130.297,7.566 
	-139.779,17.049 -139.047,17.779 -129.564,8.297 -129.564,13.773 -128.531,13.773 -128.531,6.531 -135.771,6.531 "/>
<path fill="#FFFFFF" stroke="#FFFFFF" stroke-width="0.5" stroke-miterlimit="10" d="M-144.953,22.309l-9.48,9.607v-5.689h-1.033
	v7.242h7.24v-1.033h-5.268l9.277-9.4L-144.953,22.309z M-151.826,29.828v-0.213l0.215,0.213H-151.826z"/>
<rect x="-49" display="none" width="40" height="40"/>
<g>
	<polygon fill="#FFFFFF" stroke="#FFFFFF" stroke-width="0.5" stroke-miterlimit="10" points="-25.744,10.539 -25.744,16.014 
		-16.262,6.531 -15.531,7.264 -25.014,16.746 -19.537,16.746 -19.537,17.779 -26.779,17.779 -26.779,10.539 	"/>
	<path fill="#FFFFFF" stroke="#FFFFFF" stroke-width="0.5" stroke-miterlimit="10" d="M-41.695,33.514l9.4-9.277v5.268h1.033v-7.24
		h-7.242v1.033h5.689l-9.607,9.48L-41.695,33.514z M-34.902,26.119l-0.213-0.215h0.213V26.119z"/>
</g>
<polygon fill="#FFFFFF" stroke="#FFFFFF" stroke-width="0.5" stroke-miterlimit="10" points="-192.655,10.229 -187.6,10.229 
	-193.949,17.065 -193.273,17.792 -186.924,10.957 -186.924,16.4 -185.969,16.4 -185.969,9.2 -192.655,9.2 "/>
<path fill="#FFFFFF" stroke="#FFFFFF" stroke-width="0.5" stroke-miterlimit="10" d="M-198.729,22.297l-6.348,6.959v-5.655h-0.955
	V30.8h6.688v-1.027h-4.862l6.159-6.755L-198.729,22.297z M-205.076,29.772v-0.211l0.201,0.211H-205.076z"/>
<rect y="70.777" width="40" height="40"/>
<polygon fill="#FFFFFF" stroke="#FFFFFF" stroke-width="0.5" stroke-miterlimit="10" points="22.774,81.577 22.774,86.633 
	29.61,80.283 30.337,80.959 23.502,87.309 28.945,87.309 28.945,88.264 21.745,88.264 21.745,81.577 "/>
<path fill="#FFFFFF" stroke="#FFFFFF" stroke-width="0.5" stroke-miterlimit="10" d="M10.43,101.318l6.755-6.159v4.862h1.027v-6.688
	h-7.199v0.955h5.655l-6.959,6.348L10.43,101.318z M17.185,94.49l-0.211-0.201h0.211V94.49z"/>
<g>
	<polygon fill="#FFFFFF" stroke="#FFFFFF" stroke-width="0.5" stroke-miterlimit="10" points="25.906,7.825 25.906,12.881 
		32.742,6.531 33.469,7.207 26.634,13.557 32.077,13.557 32.077,14.512 24.877,14.512 24.877,7.825 	"/>
	<path fill="#FFFFFF" stroke="#FFFFFF" stroke-width="0.5" stroke-miterlimit="10" d="M7.299,33.514l6.755-6.159v4.862h1.027v-6.688
		H7.882v0.955h5.655l-6.959,6.348L7.299,33.514z M14.054,26.686l-0.211-0.201h0.211V26.686z"/>
</g>
<rect x="-493" y="60" width="40" height="40"/>
<g>
	
		<rect x="-538.037" y="69.2" fill="none" stroke="#FFFFFF" stroke-width="1.5" stroke-miterlimit="10" width="4.682" height="21.6"/>
	
		<rect x="-526.644" y="69.2" fill="none" stroke="#FFFFFF" stroke-width="1.5" stroke-miterlimit="10" width="4.681" height="21.6"/>
</g>
<g>
	
		<rect x="-481.037" y="69.2" fill="#FFFFFF" stroke="#FFFFFF" stroke-width="1.296" stroke-miterlimit="10" width="4.682" height="21.6"/>
	
		<rect x="-469.643" y="69.2" fill="#FFFFFF" stroke="#FFFFFF" stroke-width="1.296" stroke-miterlimit="10" width="4.68" height="21.6"/>
</g>
</svg>
