<svg xmlns="http://www.w3.org/2000/svg" xmlns:xlink="http://www.w3.org/1999/xlink" width="294.932" height="290.745" viewBox="0 0 294.932 290.745"><g><animateTransform attributeName="transform" attributeType="XML" type="rotate" from="0 147 145" to="360 147 145" dur="10s" repeatCount="indefinite"/><defs><clipPath id="a"><path d="M0,0H31.887V14.606H0Z" transform="translate(0.088 0.04)" fill="none"/></clipPath></defs><g transform="translate(60.928 -37.877) rotate(20)"><path d="M11.952,32.972c-.29.1-.633-.092-.949-.138-.451-.066-.579-1.765-1-2.06-.477-.209-1.175,1.79-4.292,1.337A6.358,6.358,0,0,1,.069,24.753C.549,21.368,2.3,9.015,2.787,5.583a6.362,6.362,0,0,1,7.465-5.5,6.4,6.4,0,0,1,5.681,7.41l-.35,2.471c-.058.411-.491.536-2.795.2-1.581-.23-2.175-.269-2.1-.773.091-.641.234-1.974.3-2.432A1.881,1.881,0,0,0,9.583,4.8C8.228,4.6,7.659,6.011,7.5,7.155,6.667,13.011,5.473,21.43,5.052,24.4c-.169,1.19-.234,2.628,1.347,2.858A1.656,1.656,0,0,0,8.33,25.675l.85-5.994c.059-.412-.058-.569-.316-.7a10.51,10.51,0,0,1-1.181-.452c-.155-.209-.09-.667.014-1.4.11-.778.182-1.281.375-1.346.646-.326,2.64-.083,4.44.225s2.123.636,2.032,1.276l-2.108,14.87c-.033.229-.1.732-.485.817" transform="translate(153.776 1)"/><path d="M12.333,34a10.219,10.219,0,0,1-2.081-.49l-.319-.091c-1.178-.335-1.666-.474-1.806-.728-.078-.141-.05-.316.03-.588.706-2.4,1.54-5.247,2.19-7.461l.076-.258.695-2.367a3.507,3.507,0,0,0-.016-2.582,1.313,1.313,0,0,0-.817-.65l-.277-.079-.014,0a5.6,5.6,0,0,0-1.183-.276c-.257,0-.339.134-.428.434L7.259,22.688,4.8,31.051c-.114.389-.254.6-.668.6a10.448,10.448,0,0,1-2.153-.5c-1.156-.33-1.736-.5-1.917-.823a.984.984,0,0,1,.02-.764C2.059,22.839,4.479,14.592,6.625,7.283L8.413,1.189a2.624,2.624,0,0,1,.5-1.046A.652.652,0,0,1,9.316,0,1.9,1.9,0,0,1,9.86.123c.086.027.182.058.285.087l2.74.783,1.661.475A7.692,7.692,0,0,1,19.22,4.75a6.48,6.48,0,0,1,.407,5.344c-.344,1.174-.507,1.728-.729,2.485l-.365,1.243A4.647,4.647,0,0,1,16.927,16.5a4.316,4.316,0,0,1-2.306.877c-.2.026-.324.042-.335.079-.016.056.115.144.313.279a3.877,3.877,0,0,1,1.556,1.728,4.34,4.34,0,0,1-.011,2.991l-.731,2.491-.027.093c-.85,2.9-1.593,5.429-2.484,8.467C12.807,33.826,12.688,34,12.333,34Zm.277-28.044a.547.547,0,0,0-.325.094,1.257,1.257,0,0,0-.3.532c-1.2,4.078-1.2,4.078-1.917,6.534-.115.391-.206.7-.035.941a.966.966,0,0,0,.557.258c.069.018.141.036.217.058a2.519,2.519,0,0,0,.677.091,2.163,2.163,0,0,0,1.116-.292,2.457,2.457,0,0,0,1.124-1.532c.277-.945.506-1.727.754-2.57l.121-.412a3.538,3.538,0,0,0,.086-2.589c-.194-.41-.388-.681-1.446-.984A2.469,2.469,0,0,0,12.611,5.956Z" transform="translate(168.776 4)"/><path d="M12.424,33a6.589,6.589,0,0,1-1.918-.68l-.262-.118-.406-.179c-.977-.427-1.623-.71-1.467-1.268.339-1.215.642-2.247.935-3.244.327-1.112.635-2.162.991-3.451.122-.377-.256-.537-.778-.759-.092-.039-.19-.08-.29-.125-.123-.055-.235-.108-.339-.157a2.168,2.168,0,0,0-.755-.269.338.338,0,0,0-.31.2l-.064.112C6.5,25.282,5.66,26.748,4.4,29.075a.371.371,0,0,1-.359.18,6.042,6.042,0,0,1-1.83-.653l-.3-.136c-.576-.258-1.775-.8-1.9-1.169a.158.158,0,0,1,.01-.133c2.232-3.625,4.2-6.8,6.1-9.876l.007-.011C9.7,11.492,12.788,6.5,16.592.251A.608.608,0,0,1,17.154,0a5.481,5.481,0,0,1,1.9.59c1.122.5,2.114,1.018,1.929,1.777l-.984,3.609c-2.579,9.461-4.441,16.293-7.261,26.834C12.7,32.938,12.6,33,12.424,33Zm2.369-22.744c-.229,0-.73.941-.8,1.1l-.735,1.429c-1.272,2.473-2.191,4.26-3.369,6.471-.128.292.051.428.689.715.089.04.172.08.253.119a1.6,1.6,0,0,0,.561.2c.119,0,.194-.065.238-.2l.78-2.171c.752-2.1,1.344-3.746,2.29-6.344.107-.242.41-1.186.123-1.314A.071.071,0,0,0,14.793,10.256Z" transform="translate(182.776 11)"/><path d="M11.735,33.965c-1.925-1.192-1.993-1.342-1.619-1.918,3.491-5.368,8-12.308,9.856-15.411.068-.443-.361-.547-.689-.212-1.868,1.855-3.486,3.327-4.727,4.387-.328.335-.61.429-1.239.04S12.7,20.2,12.8,19.78c.459-1.383,1.209-3.554,2.109-5.955.171-.432-.226-.839-.582-.63-2.113,2.994-6.551,9.82-10.042,15.188-.4.614-.567.618-2.609-.648C-.248,26.543-.159,26.49.215,25.915L16.821.377c.424-.651.674-.443,2.206.506,1.689,1.046,1.84,1.408,1.435,2.879-.682,2.321-1.215,4.411-1.837,6.554-.479,1.586-.82,3.042-.546,3.212s1.391-.7,2.746-1.85L26.12,7.267C27.271,6.258,27.7,6.2,29.228,7.148c1.689,1.046,2.018,1.3,1.619,1.917l-16.581,25.5c-.4.614-.41.715-2.531-.6" transform="translate(195.776 18)"/><path d="M10.231,30c-.369,0-1.077-.628-1.763-1.236l-.007-.006-.2-.181c-.114-.1-.224-.2-.329-.287-.8-.7-1.33-1.154-1.024-1.638.668-1.057,1.249-1.95,1.812-2.813.624-.957,1.213-1.861,1.913-2.976.223-.321-.086-.583-.513-.946-.077-.065-.158-.134-.24-.206-.1-.089-.193-.173-.277-.25-.325-.3-.54-.493-.737-.493a.357.357,0,0,0-.248.117l-.142.135c-1.806,1.716-3,2.849-4.839,4.669a.313.313,0,0,1-.229.093c-.364,0-.922-.5-1.694-1.18L1.7,22.8l-.245-.217C1.023,22.2.007,21.3,0,20.91a.156.156,0,0,1,.048-.122C3.2,18,5.962,15.554,8.637,13.191l.009-.008C13.459,8.932,18,4.919,23.365.119A.484.484,0,0,1,23.7,0a3.908,3.908,0,0,1,1.89,1.165c.915.807,1.7,1.587,1.313,2.254L25.019,6.43l0,.008C19.855,14.7,16.128,20.667,10.433,29.886A.219.219,0,0,1,10.231,30ZM18.782,9.081c-.249,0-.942.7-1.041.817L16.66,11.016l-.08.083c-1.882,1.948-3.242,3.356-4.966,5.089-.2.24-.075.422.446.882.072.064.139.126.2.187.221.206.4.369.547.369a.254.254,0,0,0,.208-.136l1.338-1.808.04-.055c1.3-1.754,2.322-3.139,3.949-5.316.176-.207.725-1,.491-1.211A.082.082,0,0,0,18.782,9.081Z" transform="translate(211.776 33)"/><path d="M27.388,10.29,24.4,7.058a2.1,2.1,0,0,0-.815-.612c-.454-.022-.695.254-1.137.647l-4.692,4.171c-.306.272-.711.571-.7.985.015.351.3.587.543.854.49.6,1.415,1.6,1.693,1.9.432.466.293.651-1.2,1.981-1.462,1.3-1.632,1.451-2.095.951-.247-.266-1.077-1.23-1.635-1.766-.309-.333-.648-.7-.873-.742-.482-.119-.862.341-1.3.734L3.612,23.772c-.578.514-.791.217-2.364-1.482-1.3-1.4-1.514-1.569-.97-2.053L22.48.5c.442-.393.544-.484.967-.5.457-.042.611.124.919.458l6.477,7c.37.4.132.612-1.228,1.821-1.563,1.39-1.765,1.508-2.227,1.008" transform="translate(222.776 44)"/><path d="M1.188,21.146c-1.347-1.822-1.4-1.9-.889-2.288L24.745.2c.549-.419.7-.3,1.987,1.45,1.456,1.971,1.5,2.11.917,2.557L3.313,22.782c-.548.419-.613.41-2.124-1.636" transform="translate(230.776 55)"/><path d="M5.136,25.715.574,18.164c-.332-.551-.665-1.1-.552-1.443.128-.4.732-.728,1.235-1.042L26.125.145c.542-.338.737-.19,1.806,1.58,1.212,2.006,1.316,2.266.7,2.652L7.512,17.568c-.5.314-1.184.686-1.211,1.081a3.108,3.108,0,0,0,.487,1.158l2.115,3.5c.308.511.139.671-1.485,1.686-1.856,1.16-2,1.193-2.281.721" transform="translate(235.776 64)"/><path d="M5.244,24.979c-.881-2.033-.852-2.193-.229-2.463C10.831,20,18.349,16.753,21.577,15.211c.3-.328.016-.647-.436-.55-2.542.507-4.668.835-6.26,1.031-.451.1-.731.02-1.018-.643s-.134-.878.186-1.164c1.144-.889,2.964-2.266,5.033-3.751.379-.263.288-.815-.116-.837C15.588,10.608,8.194,13.8,2.379,16.317c-.665.287-.8.2-1.736-1.959-.881-2.033-.78-2.027-.157-2.3L28.15.1c.706-.3.79,0,1.491,1.621.773,1.784.691,2.164-.458,3.154-1.849,1.538-3.448,2.968-5.149,4.393-1.274,1.043-2.364,2.056-2.238,2.347s1.51.185,3.244-.023l6.731-.742c1.491-.2,1.866-.019,2.567,1.6.773,1.784.893,2.176.229,2.463L6.945,26.854c-.665.287-.729.365-1.7-1.875" transform="translate(242.776 79)"/><path d="M1.289,17.745c-.185-.252-.113-.646-.17-.969-.081-.461,1.487-1.126,1.632-1.628.047-.532-2.066-.577-2.624-3.76A6.45,6.45,0,0,1,5.3,3.55L24.3.105a6.417,6.417,0,0,1,7.565,5.529,6.493,6.493,0,0,1-5.214,7.893l-2.448.444c-.408.074-.662-.308-1.075-2.66C22.85,9.7,22.7,9.1,23.2,9.014c.634-.115,1.941-.4,2.395-.482A1.9,1.9,0,0,0,27.2,6.481C26.956,5.1,25.44,4.991,24.307,5.2L7.212,8.3c-1.179.214-2.56.607-2.278,2.221a1.662,1.662,0,0,0,2.113,1.377l5.94-1.077c.408-.074.52-.237.562-.53A11.063,11.063,0,0,1,13.6,8.993c.149-.218.6-.3,1.328-.431.771-.14,1.269-.23,1.393-.062.513.525.914,2.547,1.193,4.4s.07,2.272-.564,2.387L2.215,17.958c-.227.041-.726.132-.926-.213" transform="translate(252.776 112)"/><g transform="translate(254.776 131)"><path d="M0,0H31.887V14.606H0Z" transform="translate(0.088 0.04)" fill="none"/><g clip-path="url(#a)"><path d="M1.1,14.607c-.649,0-.663-.384-.744-2.517L.34,11.753c-.074-1.92-.08-2.077.692-2.107l8.459-.332,1.96-.077c1.761-.07,2.829-.77,2.789-1.827q-.006-.162-.011-.3c-.044-1.255-.052-1.481-.552-1.481l-.093,0-8.442.332L.99,6.121l-.1,0c-.767,0-.782-.405-.866-2.655C-.042,1.588-.056,1.2.94,1.158L30.25,0c.08,0,.158,0,.232,0a2.05,2.05,0,0,1,.907.145c.305.217.308.472.312.894,0,.089,0,.191.006.3.024.651.066,1.753.1,2.8l.067,1.791a7.826,7.826,0,0,1-1.653,5.494,6.446,6.446,0,0,1-4.911,2.1l-1.975.078-1.876.074c-.159.006-.31.009-.451.009A4.207,4.207,0,0,1,18.444,13a4.273,4.273,0,0,1-1.538-1.912c-.087-.183-.139-.294-.178-.294-.058,0-.1.155-.167.386a3.942,3.942,0,0,1-1.15,2.033,4.3,4.3,0,0,1-2.821.946l-11.416.45ZM26.331,5.125h-.062l-6.751.266c-.4.015-.724.027-.9.267a.992.992,0,0,0-.071.616c0,.07.009.144.012.221A2.353,2.353,0,0,0,19.3,8.138a2.32,2.32,0,0,0,1.612.583c.056,0,.113,0,.18,0l3.08-.122a3.515,3.515,0,0,0,2.468-.747c.327-.316.522-.587.481-1.689-.015-.414-.027-.741-.261-.917A1.212,1.212,0,0,0,26.331,5.125Z" transform="translate(0.088 0.04)"/></g></g><path d="M.325,14a.218.218,0,0,1-.167-.075C-.09,13.651.006,12.66.1,11.7v-.008c.009-.093.018-.185.027-.277.014-.154.027-.3.039-.443C.258,9.9.318,9.187.9,9.159c1.268-.061,2.349-.1,3.4-.134,1.105-.038,2.245-.076,3.574-.144.4,0,.428-.416.47-.989.007-.1.015-.206.025-.315.013-.136.027-.261.04-.376.07-.624.108-.968-.278-1.044l-.161-.033c-2.5-.507-4.147-.842-6.748-1.315C.75,4.724.832,3.869.956,2.576V2.571Q.972,2.4.989,2.227V2.216C1.053,1.553,1.2,0,1.586,0a.154.154,0,0,1,.031,0c4.195,1,7.853,1.882,11.391,2.734,6.346,1.527,12.337,2.969,19.461,4.635.6.145.58,1.271.467,2.467-.116,1.236-.284,2.351-1.065,2.416l-3.674.2C18.377,12.979,11.281,13.36.349,14ZM12.057,8.9h0l2.35.061c2.212.057,3.958.1,6.713.185.055.005.143.008.235.008.24,0,1.024-.022,1.051-.307.011-.123-.307-.234-.577-.3A5.888,5.888,0,0,0,21.1,8.4l-1.622-.257c-2.742-.434-4.723-.748-7.19-1.176l-.054,0c-.272,0-.339.223-.4.892-.009.1-.02.188-.031.277-.039.32-.069.572.038.693a.266.266,0,0,0,.211.077Z" transform="translate(253.776 146)"/><path d="M.392,13.222c.544-2.15.668-2.259,1.341-2.1,6.288,1.52,14.417,3.485,18,4.211.449-.078.414-.505-.013-.7-2.382-1.135-4.314-2.16-5.73-2.968-.427-.2-.607-.426-.43-1.128s.436-.779.873-.813c1.481-.014,3.816-.009,6.419.062.472.021.74-.473.425-.735C17.717,8.053,9.722,6.12,3.435,4.6c-.719-.174-.775-.327-.2-2.608.545-2.15.623-2.084,1.3-1.921L34.447,7.3c.764.184.641.481.207,2.191-.478,1.886-.78,2.139-2.329,2.231-2.457.1-4.645.274-6.912.377-1.683.059-3.2.2-3.275.512s1.114,1.061,2.653,1.945l5.933,3.483c1.337.742,1.529,1.114,1.1,2.825-.478,1.886-.623,2.27-1.341,2.1L.611,15.743c-.719-.174-.819-.152-.219-2.52" transform="translate(249.776 162)"/><path d="M30.895,20a.766.766,0,0,1-.161-.018L27,19.076c-9.447-2.3-16.272-3.954-26.8-6.462A.218.218,0,0,1,.04,12.5c-.165-.317.218-1.212.589-2.076l.113-.263c.059-.14.115-.274.169-.4.372-.9.618-1.486,1.079-1.486a.621.621,0,0,1,.149.019c1.213.3,2.244.573,3.241.836,1.121.3,2.179.574,3.477.893a.457.457,0,0,0,.128.02c.287,0,.422-.334.608-.8.037-.093.077-.19.119-.291.052-.121.1-.233.147-.336.25-.559.387-.866.041-1.047l-.168-.089C7.511,6.3,6.044,5.527,3.715,4.353c-.417-.212-.087-.981.412-2.146L4.26,1.9l0-.005C4.5,1.326,5.069,0,5.439,0a.15.15,0,0,1,.072.018C9.193,2.13,12.417,3.987,15.535,5.782c5.6,3.227,10.895,6.274,17.2,9.852.528.3.179,1.341-.278,2.417C32.019,19.078,31.57,20,30.895,20ZM13.477,9.472c-.2,0-.329.224-.543.727-.038.088-.076.171-.112.252-.129.283-.231.506-.166.647a.27.27,0,0,0,.189.135l2.292.749c1.988.649,3.7,1.209,6.269,2.062a3.405,3.405,0,0,0,.991.215c.178,0,.286-.042.321-.125a.085.085,0,0,0,0-.067c-.1-.235-.967-.663-1.112-.722l-1.416-.675c-2.506-1.194-4.316-2.056-6.557-3.163A.409.409,0,0,0,13.477,9.472Z" transform="translate(243.776 179)"/><path d="M21.11,22.4l2.208-3.829a2.026,2.026,0,0,0,.34-.957c-.123-.432-.468-.571-.993-.861L17.1,13.674c-.363-.2-.784-.485-1.185-.343-.339.125-.48.464-.662.779-.428.649-1.111,1.833-1.316,2.188-.318.553-.543.481-2.317-.5-1.734-.958-1.936-1.07-1.595-1.662.182-.316.859-1.4,1.206-2.092a2.519,2.519,0,0,0,.448-1.054c-.037-.489-.607-.7-1.131-.989L.387,4.386c-.686-.379-.463-.672.7-2.686C2.041.042,2.137-.217,2.782.14L29.116,14.691c.524.29.645.356.791.749.186.415.072.613-.156,1.008l-4.78,8.29c-.273.474-.556.318-2.168-.573-1.855-1.025-2.034-1.176-1.693-1.768" transform="translate(240.776 193)"/><path d="M1.234,1.742C2.534-.117,2.587-.193,3.122.176L28.654,17.763c.573.395.506.573-.741,2.356-1.406,2.011-1.523,2.1-2.134,1.677L.361,4.288c-.573-.395-.585-.459.874-2.546" transform="translate(233.776 204)"/><path d="M.17,7.778,5.8.989C6.21.493,6.621,0,6.977,0,7.4,0,7.889.479,8.341.866L30.724,20.021c.488.417.41.654-.909,2.245-1.5,1.8-1.706,1.986-2.263,1.509L8.545,7.51c-.452-.387-1.015-.929-1.394-.83a3.059,3.059,0,0,0-.93.836l-2.61,3.147c-.381.46-.585.346-2.047-.9C-.107,8.327-.182,8.2.17,7.778" transform="translate(224.776 210)"/><path d="M1.561,8.975c1.671-1.485,1.834-1.508,2.292-1,4.269,4.745,9.788,10.879,12.3,13.465.411.184.626-.191.39-.59-1.3-2.262-2.292-4.184-2.988-5.64-.237-.4-.253-.69.292-1.175s.8-.407,1.177-.193c1.218.809,3.121,2.106,5.208,3.605.373.279.874.016.766-.376-2.337-2.8-7.765-8.834-12.034-13.579-.488-.542-.446-.7,1.327-2.277,1.671-1.485,1.7-1.387,2.155-.879L32.753,22.909c.518.576.249.754-1.08,1.936-1.466,1.3-1.858,1.346-3.174.564-2.067-1.274-3.95-2.344-5.861-3.513-1.408-.883-2.728-1.6-2.968-1.388s.3,1.5,1.058,3.086l2.86,6.18c.669,1.357.613,1.773-.717,2.955-1.466,1.3-1.8,1.542-2.291,1L.3,11.191c-.488-.542-.583-.58,1.258-2.216" transform="translate(211.776 220)"/><path d="M.115,3.99c.179-.252.573-.307.86-.461.409-.22,1.541,1.052,2.063,1.034.517-.121-.12-2.128,2.7-3.642a6.488,6.488,0,0,1,9.065,2.446l9.364,16.849a6.317,6.317,0,0,1-2.785,8.853A6.53,6.53,0,0,1,12.259,26.6l-1.207-2.171c-.2-.362.078-.72,2.165-1.84,1.433-.769,1.943-1.094,2.189-.652.313.563,1,1.707,1.226,2.109a1.911,1.911,0,0,0,2.453.876c1.228-.658.84-2.121.282-3.126L10.941,6.641c-.581-1.046-1.4-2.226-2.83-1.458A1.638,1.638,0,0,0,7.491,7.6l2.927,5.268c.2.362.391.417.681.365a10.969,10.969,0,0,1,1.239-.351c.253.073.477.475.835,1.118.38.684.626,1.126.507,1.294-.331.648-2.11,1.653-3.77,2.492s-2.121.772-2.434.209L.213,4.93c-.112-.2-.358-.643-.1-.94" transform="translate(190.776 239)"/><path d="M14.644,32a6.135,6.135,0,0,1-2.448-.478,6.5,6.5,0,0,1-3.489-4l-.516-1.368-.839-2.226a4.655,4.655,0,0,1-.334-3.061A4.18,4.18,0,0,1,8.3,18.825c.142-.139.228-.222.215-.258s-.068-.045-.195-.045c-.06,0-.133,0-.216.006l-.042,0c-.1,0-.215.008-.344.008a3.4,3.4,0,0,1-1.854-.469A4.349,4.349,0,0,1,4.1,15.692C2.614,11.761,1.5,8.8.077,5.039c-.255-.677.055-.794,2.07-1.554l.307-.116A6.5,6.5,0,0,1,4.1,2.855c.273,0,.38.161.515.52L5.3,5.188l.015.041,2.97,7.87c.511,1.354,1.3,2.162,2.1,2.162a1.328,1.328,0,0,0,.47-.089l.277-.1c.775-.29,1.128-.423,1.218-.622A.6.6,0,0,0,12.3,14L9.924,7.7l-.043-.114L7.866,2.248c-.142-.375-.157-.624.168-.867A10.13,10.13,0,0,1,10.016.519,6.321,6.321,0,0,1,11.739,0c.33,0,.514.175.7.669l6.1,16.154,4.226,11.2a2.626,2.626,0,0,1,.229,1.12c-.1.356-.339.437-.729.571-.083.028-.176.06-.275.1L17.8,31.39A9.091,9.091,0,0,1,14.644,32Zm-.9-13.243h0a1.377,1.377,0,0,0-.475.137c-.064.026-.131.053-.2.08a2.275,2.275,0,0,0-1.283,1.209,2.4,2.4,0,0,0,.03,1.872l.309.819.052.139.723,1.917a3.56,3.56,0,0,0,1.47,2.1,1.3,1.3,0,0,0,.655.189,3.143,3.143,0,0,0,1.059-.256c.378-.143.677-.256.766-.531a1.255,1.255,0,0,0-.08-.6l-2.377-6.3c-.143-.378-.256-.677-.531-.766a.405.405,0,0,0-.115-.016Z" transform="translate(176.776 245)"/><path d="M12.3,33c-.536,0-.864-.162-1-.5l-1.27-3.3C6.511,20.078,3.974,13.488.02,3.36a.221.221,0,0,1,.005-.195c.165-.324,1.121-.544,2.044-.757l.275-.064.429-.1a6.2,6.2,0,0,1,1.28-.233.567.567,0,0,1,.617.358c.442,1.167.8,2.165,1.154,3.131.393,1.083.764,2.1,1.237,3.345a.357.357,0,0,0,.39.26,3.026,3.026,0,0,0,.665-.124c.1-.025.2-.051.306-.076.128-.03.248-.056.358-.079.6-.129.932-.2.884-.589L9.648,8.1c-.3-2.521-.492-4.186-.853-6.792C8.734.846,9.551.657,10.789.37l.012,0,.318-.074A9.412,9.412,0,0,1,12.9,0c.3,0,.46.065.474.192.358,4.274.665,8.014.962,11.63C14.861,18.256,15.36,24.334,16,31.546c.051.611-1,.942-2.141,1.209A7.491,7.491,0,0,1,12.3,33ZM9.852,12.154a3.11,3.11,0,0,0-.625.1c-.093.022-.182.04-.268.058-.308.063-.55.113-.629.251a.274.274,0,0,0,0,.232c.24.807.455,1.528.657,2.209l0,.011c.627,2.105,1.122,3.768,1.889,6.392.056.248.345,1.123.637,1.123a.146.146,0,0,0,.033,0c.22-.052.056-1.188.014-1.373l-.249-1.549,0-.01c-.44-2.737-.759-4.715-1.121-7.186A.292.292,0,0,0,9.852,12.154Z" transform="translate(161.776 249)"/><path d="M2.416.976C4.693.8,4.84.884,4.894,1.569c.5,6.389,1.15,14.648,1.573,18.243.218.4.626.228.683-.235.357-2.6.75-4.739,1.093-6.326.057-.464.225-.706.968-.762s.9.162,1.073.561c.483,1.387,1.217,3.58,1.972,6.048.129.449.7.544.854.165C12.962,15.6,12.324,7.479,11.823,1.09,11.766.36,11.9.258,14.314.075,16.592-.1,16.553,0,16.606.682c.9,11.409,1.534,19.532,2.387,30.393.061.775-.268.755-2.08.892-2,.152-2.342-.052-2.921-1.477-.88-2.275-1.738-4.275-2.558-6.371-.59-1.562-1.212-2.938-1.538-2.913s-.686,1.383-1.065,3.11L7.3,31c-.3,1.492-.607,1.791-2.42,1.928-2,.152-2.421.137-2.478-.593C1.827,25.029.927,13.575.017,1.984c-.058-.73-.111-.818,2.4-1.008" transform="translate(143.776 253)"/><path d="M5.853,32c-.318,0-.643-.019-.918-.038C3.7,31.878,2.58,31.739,2.5,30.982l-.257-3.226C1.47,18.086.912,11.1,0,.362A.21.21,0,0,1,.054.192C.171.061.47,0,1,0c.385,0,.848.033,1.3.065H2.3l.275.019.448.028C4.094.177,4.8.219,4.845.781,4.935,2,5,3.049,5.057,4.058c.067,1.129.131,2.195.23,3.5.012.385.424.405.995.433.1.005.209.01.319.018.135.009.26.02.375.029.2.017.371.031.512.031.288,0,.477-.055.525-.327l.028-.153c.446-2.443.741-4.056,1.151-6.6.043-.256.335-.365.976-.365.347,0,.77.03,1.26.064l.336.023c.588.04,1.965.133,2.2.437A.148.148,0,0,1,14,1.268c-.895,4.083-1.686,7.662-2.451,11.124-1.374,6.216-2.67,12.083-4.163,19.058C7.3,31.82,6.8,32,5.853,32Zm-.1-20.665h0a.426.426,0,0,0-.319.088.269.269,0,0,0-.061.207c0,.844,0,1.6,0,2.307v.012c0,2.058-.006,3.835-.024,6.5a2.341,2.341,0,0,0,.2,1.175.183.183,0,0,0,.126.07c.233,0,.4-1.1.417-1.284.08-.583.156-1.131.228-1.653.364-2.649.627-4.563.991-6.951a.3.3,0,0,0-.06-.229c-.107-.123-.366-.162-.838-.194-.1-.007-.188-.015-.276-.024-.14-.013-.272-.026-.382-.026Z" transform="translate(128.776 253)"/><path d="M1.427,25.747l4.356.841a2.082,2.082,0,0,0,1.023.011c.375-.254.4-.622.512-1.206.607-3.145.589-3.055,1.2-6.2.078-.4.218-.89-.044-1.221a1.487,1.487,0,0,0-.953-.37c-.755-.192-2.1-.453-2.506-.531-.629-.122-.63-.355-.249-2.332.373-1.932.416-2.157,1.09-2.027.359.07,1.608.358,2.38.46a2.573,2.573,0,0,0,1.149.082c.456-.192.479-.793.592-1.377L12.156.556c.148-.763.5-.649,2.788-.207C16.83.713,17.108.72,16.97,1.44c-2.081,10.783-3.58,18.555-5.66,29.338-.113.584-.139.719-.469.981-.338.307-.563.264-1.012.177L.4,30.115C-.14,30.011-.08,29.7.267,27.9c.4-2.067.487-2.283,1.16-2.153" transform="translate(110.776 252)"/><path d="M10.939.526c2.09.636,2.176.662,2,1.284L4.619,31.5c-.187.667-.37.659-2.375.049-2.261-.688-2.376-.771-2.177-1.482L8.351.51c.187-.666.242-.7,2.588.016" transform="translate(101.776 248)"/><path d="M6.445.072l8.211,3.3c.6.241,1.2.481,1.309.826.138.405-.16,1.036-.381,1.6L4.65,33.565c-.238.605-.486.606-2.41-.167C.058,32.522-.182,32.376.09,31.684L9.375,8.1c.221-.561.553-1.279.338-1.615a3.062,3.062,0,0,0-1.087-.636L4.821,4.322c-.556-.223-.513-.456.2-2.271C5.838-.021,5.932-.134,6.445.072" transform="translate(91.776 243)"/><path d="M17.995.943c1.967,1.1,2.041,1.249,1.7,1.839-3.225,5.5-7.394,12.6-9.094,15.77-.047.444.384.528.695.181,1.771-1.928,3.313-3.464,4.5-4.573.31-.347.586-.454,1.228-.093s.648.624.561,1.045c-.393,1.4-1.04,3.591-1.825,6.02-.15.438.262.826.607.6,1.963-3.073,6.064-10.06,9.289-15.556.368-.628.535-.639,2.622.532,1.967,1.1,1.881,1.16,1.536,1.749L14.465,34.6c-.392.667-.65.47-2.215-.408-1.726-.969-1.892-1.322-1.556-2.8.573-2.34,1.007-4.444,1.528-6.6.4-1.6.677-3.064.4-3.221s-1.35.755-2.644,1.96l-5.06,4.623C3.815,29.2,3.4,29.278,1.83,28.4.1,27.431-.235,27.189.134,26.56L15.452.456c.368-.628.374-.729,2.542.487" transform="translate(65.776 235)"/><path d="M19.2.035c.29.088.462.442.693.664.33.316-.514,1.788-.338,2.274.27.45,1.953-.791,4.229,1.39a6.5,6.5,0,0,1,.475,9.325l-12.9,14.194a6.166,6.166,0,0,1-9.124.194,6.546,6.546,0,0,1-.477-9.39l1.662-1.829c.277-.3.7-.156,2.379,1.456,1.155,1.106,1.615,1.483,1.276,1.856-.431.474-1.291,1.488-1.6,1.827a1.92,1.92,0,0,0-.072,2.592c.99.948,2.239.117,3.008-.73l11.6-12.771c.8-.881,1.656-2.026.5-3.132a1.6,1.6,0,0,0-2.452.186l-4.032,4.438a.566.566,0,0,0-.134.758,10.777,10.777,0,0,1,.706,1.056c.009.262-.3.6-.791,1.143-.523.576-.862.949-1.055.89-.706-.106-2.188-1.462-3.477-2.761s-1.368-1.754-.937-2.228l10-11.01c.154-.169.492-.542.849-.391" transform="translate(44.776 219)"/><path d="M5.687,30c-.347,0-.5-.207-.74-.52-.053-.07-.113-.149-.18-.232L3.915,28.19,1.928,25.723A7.665,7.665,0,0,1,.021,20.372a6.6,6.6,0,0,1,2.7-4.642l1.709-1.4,1.291-1.059a4.62,4.62,0,0,1,2.815-1.3c.1-.01.2-.014.305-.014a3.867,3.867,0,0,1,1.579.361c.19.084.349.166.477.233a1.067,1.067,0,0,0,.294.129.03.03,0,0,0,.02-.006c.045-.036-.01-.184-.094-.406a3.907,3.907,0,0,1-.274-2.306A4.424,4.424,0,0,1,12.553,7.5l4.922-4.036.022-.018L21.444.205A.689.689,0,0,1,21.872,0c.345,0,.717.461,1.71,1.694l0,.006.207.257c1.188,1.472,1.285,1.592.683,2.086L19.82,7.861,16.362,10.7c-1.371,1.124-1.816,2.327-1.162,3.139l.185.23c.555.692.784.978,1.013.978a.653.653,0,0,0,.379-.2l3.379-2.771.132-.109,6.3-5.163a.844.844,0,0,1,.52-.251c.391,0,.807.517,1.813,1.767,1.162,1.444,1.4,1.744.628,2.38L6.72,29.418a2.609,2.609,0,0,1-1,.581Zm4.857-13.67a2.432,2.432,0,0,0-1.61.636l-2.4,1.967a3.608,3.608,0,0,0-1.539,2.089c-.076.449-.072.783.609,1.629.255.317.457.567.745.567a1.248,1.248,0,0,0,.549-.269l5.257-4.31c.315-.258.564-.462.563-.757a.967.967,0,0,0-.306-.531c-.045-.052-.092-.107-.14-.167a2.281,2.281,0,0,0-1.561-.848C10.655,16.331,10.6,16.329,10.544,16.329Z" transform="translate(31.776 207)"/><path d="M2.516,24C1.984,24,1.4,23.189.848,22.312c-.65-1.031-1.186-2-.6-2.5L3,17.576l.008-.007c7.6-6.163,13.083-10.615,21.5-17.51A.224.224,0,0,1,24.66,0c.364,0,.9.861,1.426,1.693l.156.248c.082.13.162.255.238.374.57.889.947,1.477.5,1.836-.979.786-1.824,1.444-2.641,2.081-.9.705-1.759,1.371-2.787,2.2-.317.233-.093.573.216,1.042.055.084.113.171.171.264.071.112.135.218.193.315.264.437.424.7.664.7a.446.446,0,0,0,.188-.047l.271-.125c2.18-1,3.755-1.727,6.085-2.856a.337.337,0,0,1,.146-.034c.385,0,.814.686,1.409,1.636l.177.282c.333.529,1.026,1.631.916,2a.154.154,0,0,1-.085.1c-4.028,1.691-7.545,3.16-10.945,4.58C15,18.778,9.368,21.128,2.705,23.962A.49.49,0,0,1,2.516,24ZM18.356,10.787h0a.308.308,0,0,0-.184.074l-1.992,1.371,0,0c-1.716,1.181-3.2,2.2-5.427,3.721-.171.1-.8.553-.869.848a.171.171,0,0,0,.016.135c.018.028.057.043.117.043a4.1,4.1,0,0,0,1.2-.457l1.377-.7.055-.028c2.473-1.266,4.259-2.18,6.5-3.29a.3.3,0,0,0,.159-.184c.038-.156-.081-.384-.327-.775-.051-.081-.1-.16-.142-.235-.173-.291-.309-.521-.486-.521Z" transform="translate(20.776 195)"/><path d="M29.861,2.046c.864,2.055.833,2.216.207,2.482-5.84,2.481-13.389,5.688-16.632,7.214-.3.327-.021.651.431.558,2.547-.489,4.678-.8,6.272-.984.452-.094.731-.015,1.013.657s.127.885-.2,1.171c-1.152.885-2.984,2.256-5.067,3.734-.382.261-.3.817.108.844,3.39-1.292,10.815-4.446,16.654-6.927.667-.284.8-.193,1.72,1.987.864,2.055.763,2.049.137,2.314L6.73,26.9c-.709.3-.791-.01-1.478-1.646-.758-1.8-.673-2.186.486-3.172C7.6,20.547,9.213,19.121,10.927,17.7c1.283-1.039,2.382-2.05,2.259-2.344s-1.509-.2-3.246,0l-6.74.689c-1.493.19-1.867,0-2.554-1.633-.758-1.8-.875-2.2-.207-2.482L28.176.143c.667-.283.733-.361,1.685,1.9" transform="translate(9.776 178)"/><path d="M1.493,17C.914,17,.57,15.963.284,14.843c-.3-1.2-.519-2.3.188-2.62l3.493-1.47C12.916,6.986,19.381,4.265,29.325.023a.233.233,0,0,1,.1-.023c.378,0,.645,1.06.9,2.084l.072.284c.039.152.077.3.113.435.272,1.034.452,1.717-.079,1.937-1.16.481-2.154.876-3.115,1.259-1.068.425-2.077.826-3.3,1.337-.369.136-.26.533-.108,1.082.027.1.055.2.082.306.033.131.062.253.089.365.135.574.21.89.525.89a.562.562,0,0,0,.084-.007l.143-.021c2.508-.363,4.165-.6,6.76-1.032a.352.352,0,0,1,.056,0c.423,0,.626.8.932,2.017l.084.332c.145.568.483,1.9.266,2.222a.155.155,0,0,1-.109.073c-4.239.466-7.956.868-11.551,1.257C14.831,15.513,8.754,16.17,1.545,17ZM20.226,8.694a.376.376,0,0,0-.131.027L17.7,9.51c-1.947.643-3.629,1.2-6.154,2.019-.265.068-1.179.406-1.1.711.018.07.142.1.369.1a5.484,5.484,0,0,0,1-.123l1.514-.286.013,0c2.737-.518,4.713-.892,7.181-1.322.307-.079.3-.3.129-.986-.024-.093-.044-.183-.064-.269C20.507,8.971,20.444,8.694,20.226,8.694Z" transform="translate(4.775 163)"/><path d="M4.478.61c.135,1.079.452,3.612.569,4.551a2.2,2.2,0,0,0,.31,1.008c.358.286.716.191,1.305.112l6.26-.837c.408-.055.913-.075,1.144-.439a1.588,1.588,0,0,0,.052-1.056c-.054-.8-.23-2.211-.282-2.633-.083-.657.139-.734,2.134-1,1.95-.261,2.177-.291,2.266.413.047.376.165,1.695.31,2.487a2.738,2.738,0,0,0,.283,1.155c.325.386.9.213,1.493.134L31.753,2.974c.771-.1.773.278,1.072,2.671.246,1.97.327,2.246-.4,2.343L2.805,11.947c-.59.079-.726.1-1.079-.142-.4-.233-.427-.468-.486-.937L.009,1.017C-.062.454.256.411,2.071.168,4.157-.11,4.39-.094,4.478.61" transform="translate(1.776 154)"/><path d="M31.962,2.537c.081,2.24.084,2.332-.556,2.355L.85,6c-.686.025-.739-.157-.816-2.3C-.055,1.27-.014,1.131.718,1.1L31.138,0c.686-.025.733.019.824,2.534" transform="translate(0.776 144)"/><path d="M33,.758c-.125,2.151-.427,7.348-.5,8.6-.036.627-.073,1.254-.364,1.463a2.974,2.974,0,0,1-1.637.136L.658,9.346c-.65-.035-.73-.264-.612-2.281C.178,4.78.24,4.514.982,4.554L26.319,5.925c.6.033,1.389.12,1.64-.181a2.91,2.91,0,0,0,.256-1.2c.057-.986.175-3,.231-3.988.034-.582.268-.614,2.217-.509C32.891.168,33.028.22,33,.758" transform="translate(0.776 130)"/><path d="M33.7,8.511c-.437,2.19-.553,2.306-1.221,2.172-6.236-1.253-14.3-2.874-17.843-3.447-.436.1-.383.527.045.706,2.387,1.038,4.329,1.986,5.754,2.737.428.179.615.4.472,1.118s-.392.8-.82.858c-1.452.08-3.742.177-6.3.222-.463,0-.7.509-.383.759,3.536.85,11.464,2.445,17.7,3.7.713.143.775.3.311,2.62-.437,2.189-.518,2.127-1.186,1.993L.569,15.982c-.757-.152-.65-.456-.3-2.2.383-1.922.669-2.19,2.183-2.35,2.405-.214,4.544-.481,6.762-.686,1.648-.133,3.127-.347,3.19-.66s-1.14-1.019-2.69-1.843L3.735,5c-1.345-.689-1.55-1.056-1.2-2.8C2.917.277,3.041-.117,3.754.027L33.373,5.981c.713.143.811.117.329,2.53" transform="translate(2.776 107)"/><path d="M32,11.411c.01.3-.264.574-.4.861-.188.41-1.818.061-2.212.377-.331.395,1.349,1.608.05,4.437A6.238,6.238,0,0,1,20.957,20.4L3.739,12.529A6.264,6.264,0,0,1,.676,3.938,6.28,6.28,0,0,1,9.22.6l2.219,1.014c.37.169.365.613-.6,2.7C10.184,5.754,9.98,6.306,9.528,6.1c-.575-.263-1.786-.766-2.2-.954a1.841,1.841,0,0,0-2.423.727C4.344,7.1,5.508,8.031,6.536,8.5l15.492,7.081c1.068.488,2.4.948,3.058-.487a1.626,1.626,0,0,0-.947-2.267l-5.383-2.461c-.37-.169-.55-.1-.744.106a10.438,10.438,0,0,1-.756.994c-.239.089-.65-.1-1.308-.4-.7-.319-1.15-.526-1.158-.727-.125-.7.663-2.524,1.457-4.144s1.192-1.836,1.766-1.573l13.355,6.1c.206.094.658.3.63.685" transform="translate(13.776 79)"/><path d="M26.812,26a1.221,1.221,0,0,1-.629-.251L.927,9.558a2.674,2.674,0,0,1-.876-.782c-.134-.357.01-.568.248-.919.051-.074.108-.159.166-.25L2,5.2l.936-1.471A7.706,7.706,0,0,1,7.45.169,5.36,5.36,0,0,1,8.789,0a7.417,7.417,0,0,1,3.976,1.315L15.549,3.1l.535.343A4.787,4.787,0,0,1,18.236,5.76a4.319,4.319,0,0,1,.2,2.475c-.032.2-.051.325-.018.346a.04.04,0,0,0,.022.006c.059,0,.169-.09.337-.226a3.9,3.9,0,0,1,2.123-1c.1-.006.2-.009.3-.009a4.524,4.524,0,0,1,2.608.88l2.462,1.578.026.017,7.349,4.711c.625.4.442.688-.747,2.556l-.181.284c-.709,1.116-.974,1.534-1.291,1.534a.993.993,0,0,1-.488-.206l-8.051-5.161-.052-.034-.875-.561a4.222,4.222,0,0,0-2.137-.766,1.377,1.377,0,0,0-1.244.639l-.156.245-.008.012c-.719,1.125-.812,1.27-.3,1.6l1.513.97.028.018,9.312,5.97c.741.475.549.777-.7,2.745C27.556,25.491,27.233,26,26.812,26ZM8.754,5.18h0a2.282,2.282,0,0,0-.332.024c-.455.07-.774.179-1.366,1.111-.223.351-.4.628-.3.909a1.284,1.284,0,0,0,.433.443L13,11.4a1.548,1.548,0,0,0,.744.331.488.488,0,0,0,.161-.027c.171-.064.277-.24.41-.463.037-.061.075-.125.117-.192a2.347,2.347,0,0,0,.311-1.786,2.5,2.5,0,0,0-1.173-1.525L10.945,6.051l-.027-.017a4.138,4.138,0,0,0-2.164-.852Z" transform="translate(19.776 62)"/><path d="M21.076,27a.153.153,0,0,1-.116-.047c-2.833-3.162-5.3-5.925-7.687-8.6C9,13.566,4.957,9.041.122,3.7c-.4-.453.248-1.349,1.012-2.251C1.757.715,2.414,0,3,0a.707.707,0,0,1,.359.1L6.52,2.044c8.227,5.07,14.172,8.733,23.364,14.337a.216.216,0,0,1,.111.156c.062.357-.583,1.11-1.206,1.838l-.183.214c-.1.117-.193.229-.283.337-.551.659-.949,1.136-1.334,1.136a.518.518,0,0,1-.28-.087c-1.053-.657-1.943-1.229-2.8-1.783-.964-.62-1.875-1.206-3-1.9a.368.368,0,0,0-.211-.073c-.231,0-.448.265-.723.6-.065.08-.132.162-.2.245-.087.1-.171.2-.245.282-.408.464-.633.719-.362,1l.145.151c1.725,1.8,2.864,2.986,4.693,4.814.327.33-.223.974-1.056,1.95l0,0-.217.254C22.314,26,21.46,27,21.076,27ZM9.262,8.1a.191.191,0,0,0-.153.059.09.09,0,0,0-.017.068c.022.258.711.934.825,1.029l1.118,1.069.083.079c1.964,1.877,3.382,3.233,5.129,4.952a.318.318,0,0,0,.206.09c.168,0,.348-.178.666-.551.062-.073.123-.141.182-.207.212-.237.379-.424.36-.58a.268.268,0,0,0-.136-.184L15.666,12.56l-.015-.011c-1.759-1.286-3.149-2.3-5.331-3.914A2.52,2.52,0,0,0,9.262,8.1Z" transform="translate(33.776 49)"/><path d="M31.419,25.134c-1.689,1.468-1.853,1.489-2.308.978-4.242-4.77-9.726-10.937-12.223-13.54-.411-.187-.63.185-.4.586,1.283,2.267,2.263,4.194,2.948,5.652.234.4.248.691-.3,1.17s-.806.4-1.183.181c-1.215-.817-3.113-2.127-5.194-3.642-.372-.281-.877-.024-.772.369C14.309,19.7,19.7,25.77,23.944,30.54c.485.545.442.7-1.35,2.26-1.69,1.468-1.716,1.369-2.17.858L.244,10.966c-.515-.579-.243-.755,1.1-1.923C2.827,7.755,3.22,7.716,4.534,8.507,6.6,9.8,8.478,10.88,10.384,12.062c1.405.893,2.724,1.62,2.965,1.41s-.293-1.5-1.035-3.087L9.5,4.194c-.66-1.36-.6-1.774.744-2.941C11.726-.035,12.067-.27,12.551.275L32.7,22.933c.485.545.58.583-1.282,2.2" transform="translate(43.776 30)"/><path d="M13.421,31a.189.189,0,0,1-.186-.09c-1.792-3.829-3.357-7.189-4.871-10.438v-.005h0C5.663,14.675,3.113,9.2.043,2.725-.213,2.177.679,1.511,1.681.874A4.5,4.5,0,0,1,3.654,0a.736.736,0,0,1,.567.231L6.59,2.892c6.457,7.251,11.122,12.489,18.346,20.524A.214.214,0,0,1,25,23.6c-.044.357-.885.888-1.7,1.4l-.242.153-.37.238a3.483,3.483,0,0,1-1.468.719.506.506,0,0,1-.4-.185c-.818-.929-1.5-1.73-2.167-2.506-.746-.871-1.45-1.694-2.327-2.685a.344.344,0,0,0-.278-.144,1.748,1.748,0,0,0-.779.379c-.085.056-.173.115-.265.173-.113.072-.219.137-.317.2-.531.325-.824.5-.645.847l.033.065c1.153,2.259,1.914,3.751,3.156,6.064.218.41-.5.865-1.593,1.554l-.286.181A6.057,6.057,0,0,1,13.421,31ZM7.464,9.545h0a.162.162,0,0,0-.088.025.088.088,0,0,0-.036.059,3.337,3.337,0,0,0,.489,1.219l.763,1.346c1.358,2.394,2.338,4.124,3.529,6.3a.284.284,0,0,0,.247.155,1.716,1.716,0,0,0,.727-.343c.081-.052.16-.1.235-.145.275-.165.491-.3.517-.45a.265.265,0,0,0-.076-.214l-1.344-1.775C11.1,13.964,10.045,12.576,8.4,10.379c-.12-.184-.636-.833-.934-.833Z" transform="translate(64.776 22)"/><path d="M11.316,4.141,7.279,6.057a2.1,2.1,0,0,0-.835.6c-.15.423.053.729.316,1.258L9.547,13.53c.181.366.362.834.775.94a1.527,1.527,0,0,0,1-.272c.727-.295,1.976-.888,2.351-1.065.583-.277.725-.093,1.614,1.7.868,1.75.969,1.954.345,2.25-.333.158-1.518.67-2.206,1.047a2.611,2.611,0,0,0-.98.616c-.254.422.093.912.355,1.441l5.089,10.258c.343.692-.01.81-2.133,1.817-1.748.83-1.977.989-2.3.338L.266,6.016C0,5.487-.057,5.365.051,4.961c.088-.444.3-.543.713-.741L9.5.073c.5-.237.641.048,1.449,1.676.929,1.872.988,2.1.364,2.392" transform="translate(77.776 12)"/><path d="M12.825,30.371c-2.038.781-2.121.813-2.339.217L.083,2.152C-.15,1.514,0,1.408,1.955.659,4.159-.186,4.3-.192,4.549.49L14.9,28.8c.233.638.207.7-2.08,1.574" transform="translate(91.776 8)"/><path d="M18.6,29.464l-8.586,2.31c-.626.169-1.252.337-1.548.13-.353-.24-.49-.919-.647-1.5L.047,1.776C-.122,1.153.078,1,2.09.462,4.37-.152,4.651-.179,4.844.533l6.6,24.312c.157.578.318,1.348.691,1.486a3.109,3.109,0,0,0,1.256-.147l3.98-1.071c.581-.156.686.054,1.194,1.924.58,2.138.572,2.283.035,2.427" transform="translate(101.776 5)"/><path d="M17.656,32.416c-2.232.276-2.379.2-2.463-.491-.778-6.453-1.784-14.8-2.36-18.421-.232-.392-.625-.2-.661.269-.235,2.649-.526,4.837-.793,6.46-.036.472-.19.725-.919.815s-.893-.123-1.08-.521c-.537-1.384-1.356-3.575-2.208-6.043-.147-.449-.71-.52-.847-.129.308,3.7,1.3,11.909,2.076,18.362.089.738-.036.846-2.4,1.139-2.232.276-2.2.178-2.281-.513C2.327,21.82,1.338,13.616.015,2.645c-.094-.784.23-.777,2.006-1,1.958-.242,2.3-.051,2.938,1.368.967,2.266,1.9,4.256,2.8,6.344.65,1.557,1.323,2.924,1.642,2.885s.613-1.432.908-3.2l1.209-6.839C11.749.681,12.034.365,13.81.146,15.768-.1,16.184-.1,16.272.636c.89,7.375,2.285,18.944,3.7,30.652.089.738.145.824-2.314,1.128" transform="translate(118.776)"/></g></g></svg>