<?xml version="1.0" encoding="UTF-8"?>
<svg width="60px" height="64px" viewBox="0 0 60 64" version="1.1" xmlns="http://www.w3.org/2000/svg" xmlns:xlink="http://www.w3.org/1999/xlink">
    <!-- Generator: Sketch 64 (93537) - https://sketch.com -->
    <title>Group</title>
    <desc>Created with Sketch.</desc>
    <defs>
        <polygon id="path-1" points="0 0.197191846 15.88988 0.197191846 15.88988 34.2726841 0 34.2726841"></polygon>
    </defs>
    <g id="2.-Design" stroke="none" stroke-width="1" fill="none" fill-rule="evenodd">
        <g id="8.0-Contact_L" transform="translate(-674.000000, -1322.000000)">
            <g id="Group" transform="translate(674.000000, 1322.000000)">
                <rect id="Rectangle" fill="#25262C" x="0" y="0" width="60" height="64"></rect>
                <g id="Group-20" transform="translate(22.000000, 14.000000)">
                    <g id="Group-3" transform="translate(0.000000, 0.276560)">
                        <mask id="mask-2" fill="white">
                            <use xlink:href="#path-1"></use>
                        </mask>
                        <g id="Clip-2"></g>
                        <path d="M15.45468,34.2084571 C15.12428,34.3529679 14.68908,34.2084571 14.30588,34.2084571 C13.75988,34.2084571 13.32388,32.4736211 12.77748,32.2308854 C12.17868,32.0860213 11.68748,34.2579229 7.91708,34.2579229 C2.84108,34.2579229 -0.00012,30.9765742 -0.00012,27.5037223 L-0.00012,6.99944489 C-0.00012,3.67039709 2.72988,0.197191846 7.91708,0.197191846 C13.21588,0.197191846 15.88988,3.67039709 15.88988,6.99944489 L15.88988,9.60275886 C15.88988,10.0373512 15.39908,10.2299144 12.61348,10.2299144 C10.70268,10.2299144 9.99188,10.2779669 9.99188,9.74726963 C9.99188,9.07206157 9.93988,7.67323964 9.93988,7.19059485 C9.93988,6.51680009 9.39348,5.16638397 7.91708,5.16638397 C6.28028,5.16638397 5.84268,6.70901003 5.84268,7.91562202 L5.84268,26.3967485 C5.84268,27.6492931 6.00588,29.1463399 7.91708,29.1463399 C9.66508,29.1463399 9.93988,27.8429163 9.93988,27.2150541 L9.93988,20.8979191 C9.93988,20.4650934 9.77628,20.3170494 9.44828,20.2220044 C8.90188,20.0774936 8.02228,20.0774936 7.75068,19.9329828 C7.53108,19.7393596 7.53108,19.2581281 7.53108,18.4857551 C7.53108,17.6663896 7.53108,17.1356923 7.75068,17.0385274 C8.46108,16.604995 11.08508,16.5565892 13.26828,16.604995 C15.45468,16.6544608 15.88988,16.9434824 15.88988,17.6169238 L15.88988,33.2915733 C15.88988,33.5350157 15.88988,34.0639463 15.45468,34.2084571" id="Fill-1" fill="#FFFFFF" mask="url(#mask-2)"></path>
                    </g>
                </g>
            </g>
        </g>
    </g>
</svg>